<svg width="11" height="2" viewBox="0 0 11 2" fill="none" xmlns="http://www.w3.org/2000/svg">
<path d="M0.747188 1.57C0.540521 1.57 0.363854 1.49667 0.217188 1.35C0.0705208 1.20333 -0.00281249 1.01667 -0.00281249 0.79C-0.00281249 0.563333 0.0705208 0.376667 0.217188 0.23C0.363854 0.0833332 0.540521 0.00999981 0.747188 0.00999981C0.960521 0.00999981 1.13719 0.0833332 1.27719 0.23C1.41719 0.376667 1.48719 0.563333 1.48719 0.79C1.48719 1.01667 1.41719 1.20333 1.27719 1.35C1.13719 1.49667 0.960521 1.57 0.747188 1.57ZM5.50305 1.57C5.29638 1.57 5.11971 1.49667 4.97305 1.35C4.82638 1.20333 4.75305 1.01667 4.75305 0.79C4.75305 0.563333 4.82638 0.376667 4.97305 0.23C5.11971 0.0833332 5.29638 0.00999981 5.50305 0.00999981C5.71638 0.00999981 5.89305 0.0833332 6.03305 0.23C6.17305 0.376667 6.24305 0.563333 6.24305 0.79C6.24305 1.01667 6.17305 1.20333 6.03305 1.35C5.89305 1.49667 5.71638 1.57 5.50305 1.57ZM10.2589 1.57C10.0522 1.57 9.87557 1.49667 9.72891 1.35C9.58224 1.20333 9.50891 1.01667 9.50891 0.79C9.50891 0.563333 9.58224 0.376667 9.72891 0.23C9.87557 0.0833332 10.0522 0.00999981 10.2589 0.00999981C10.4722 0.00999981 10.6489 0.0833332 10.7889 0.23C10.9289 0.376667 10.9989 0.563333 10.9989 0.79C10.9989 1.01667 10.9289 1.20333 10.7889 1.35C10.6489 1.49667 10.4722 1.57 10.2589 1.57Z" fill="black"/>
</svg>
