<svg width="34" height="45" viewBox="0 0 34 45" fill="none" xmlns="http://www.w3.org/2000/svg">
<path d="M23 5.08949L14.75 13.3395L11 9.58949" stroke="#14AE5C" stroke-width="4" stroke-linecap="round" stroke-linejoin="round"/>
<path d="M6.80984 28.7095C6.34984 28.7095 5.92318 28.6228 5.52984 28.4495C5.13651 28.2695 4.79651 28.0328 4.50984 27.7395L5.00984 27.1595C5.24318 27.4062 5.51651 27.6062 5.82984 27.7595C6.14984 27.9062 6.47984 27.9795 6.81984 27.9795C7.25318 27.9795 7.58984 27.8828 7.82984 27.6895C8.06984 27.4895 8.18984 27.2295 8.18984 26.9095C8.18984 26.6828 8.13984 26.5028 8.03984 26.3695C7.94651 26.2362 7.81651 26.1228 7.64984 26.0295C7.48984 25.9362 7.30651 25.8428 7.09984 25.7495L6.15984 25.3395C5.95318 25.2528 5.74651 25.1395 5.53984 24.9995C5.33984 24.8595 5.16984 24.6795 5.02984 24.4595C4.89651 24.2395 4.82984 23.9695 4.82984 23.6495C4.82984 23.3162 4.91651 23.0195 5.08984 22.7595C5.26984 22.4928 5.51651 22.2862 5.82984 22.1395C6.14318 21.9862 6.49651 21.9095 6.88984 21.9095C7.28318 21.9095 7.64651 21.9862 7.97984 22.1395C8.31318 22.2862 8.59651 22.4795 8.82984 22.7195L8.37984 23.2595C8.17984 23.0662 7.95651 22.9162 7.70984 22.8095C7.46984 22.6962 7.19651 22.6395 6.88984 22.6395C6.52318 22.6395 6.22651 22.7262 5.99984 22.8995C5.77984 23.0728 5.66984 23.3062 5.66984 23.5995C5.66984 23.8062 5.72318 23.9795 5.82984 24.1195C5.94318 24.2528 6.08318 24.3628 6.24984 24.4495C6.41651 24.5362 6.58651 24.6162 6.75984 24.6895L7.68984 25.0895C7.94318 25.1962 8.16984 25.3262 8.36984 25.4795C8.57651 25.6262 8.73984 25.8095 8.85984 26.0295C8.97984 26.2428 9.03984 26.5128 9.03984 26.8395C9.03984 27.1862 8.94984 27.5028 8.76984 27.7895C8.58984 28.0695 8.33318 28.2928 7.99984 28.4595C7.66651 28.6262 7.26984 28.7095 6.80984 28.7095ZM11.5375 28.7095C11.0175 28.7095 10.6542 28.5595 10.4475 28.2595C10.2475 27.9595 10.1475 27.5695 10.1475 27.0895V24.3995H9.4275V23.7795L10.1875 23.7295L10.2875 22.3695H10.9775V23.7295H12.2875V24.3995H10.9775V27.0995C10.9775 27.3995 11.0308 27.6328 11.1375 27.7995C11.2508 27.9595 11.4475 28.0395 11.7275 28.0395C11.8142 28.0395 11.9075 28.0262 12.0075 27.9995C12.1075 27.9662 12.1975 27.9362 12.2775 27.9095L12.4375 28.5295C12.3042 28.5762 12.1575 28.6162 11.9975 28.6495C11.8442 28.6895 11.6908 28.7095 11.5375 28.7095ZM15.2197 28.7095C14.7864 28.7095 14.393 28.6095 14.0397 28.4095C13.6864 28.2028 13.4064 27.9095 13.1997 27.5295C12.993 27.1495 12.8897 26.6962 12.8897 26.1695C12.8897 25.6362 12.993 25.1795 13.1997 24.7995C13.413 24.4195 13.6864 24.1262 14.0197 23.9195C14.353 23.7128 14.703 23.6095 15.0697 23.6095C15.6897 23.6095 16.1664 23.8162 16.4997 24.2295C16.8397 24.6428 17.0097 25.1962 17.0097 25.8895C17.0097 25.9762 17.0064 26.0628 16.9997 26.1495C16.9997 26.2295 16.993 26.2995 16.9797 26.3595H13.6997C13.733 26.8728 13.893 27.2828 14.1797 27.5895C14.473 27.8962 14.853 28.0495 15.3197 28.0495C15.553 28.0495 15.7664 28.0162 15.9597 27.9495C16.1597 27.8762 16.3497 27.7828 16.5297 27.6695L16.8197 28.2095C16.613 28.3428 16.3764 28.4595 16.1097 28.5595C15.8497 28.6595 15.553 28.7095 15.2197 28.7095ZM13.6897 25.7695H16.2897C16.2897 25.2762 16.183 24.9028 15.9697 24.6495C15.763 24.3895 15.4697 24.2595 15.0897 24.2595C14.7497 24.2595 14.443 24.3928 14.1697 24.6595C13.903 24.9195 13.743 25.2895 13.6897 25.7695ZM18.2106 30.6395V23.7295H18.8906L18.9606 24.2895H18.9906C19.2106 24.1028 19.4506 23.9428 19.7106 23.8095C19.9773 23.6762 20.254 23.6095 20.5406 23.6095C21.1673 23.6095 21.644 23.8362 21.9706 24.2895C22.2973 24.7362 22.4606 25.3362 22.4606 26.0895C22.4606 26.6362 22.3606 27.1062 22.1606 27.4995C21.9673 27.8928 21.7106 28.1928 21.3906 28.3995C21.0773 28.6062 20.734 28.7095 20.3606 28.7095C20.134 28.7095 19.9073 28.6595 19.6806 28.5595C19.4606 28.4595 19.2373 28.3228 19.0106 28.1495L19.0306 28.9995V30.6395H18.2106ZM20.2206 28.0195C20.6206 28.0195 20.9506 27.8495 21.2106 27.5095C21.4773 27.1628 21.6106 26.6895 21.6106 26.0895C21.6106 25.5562 21.5106 25.1262 21.3106 24.7995C21.1173 24.4662 20.7906 24.2995 20.3306 24.2995C20.124 24.2995 19.914 24.3562 19.7006 24.4695C19.494 24.5828 19.2706 24.7462 19.0306 24.9595V27.5095C19.2506 27.6962 19.464 27.8295 19.6706 27.9095C19.8773 27.9828 20.0606 28.0195 20.2206 28.0195ZM25.7295 28.5895V27.9095H27.1895V23.2095H26.0295V22.6795C26.3228 22.6262 26.5761 22.5628 26.7895 22.4895C27.0095 22.4095 27.2061 22.3162 27.3795 22.2095H28.0095V27.9095H29.3295V28.5895H25.7295ZM0.867109 41.5895V35.0495H2.02711V41.5895H0.867109ZM5.30938 41.7095C4.69604 41.7095 4.20604 41.4828 3.83938 41.0295C3.47271 40.5762 3.28938 39.9462 3.28938 39.1395C3.28938 38.6062 3.38604 38.1462 3.57938 37.7595C3.77938 37.3728 4.03938 37.0762 4.35938 36.8695C4.67938 36.6628 5.01604 36.5595 5.36938 36.5595C5.64938 36.5595 5.88604 36.6095 6.07938 36.7095C6.27938 36.8028 6.47271 36.9328 6.65938 37.0995L6.61938 36.3095V34.5295H7.76938V41.5895H6.81938L6.73938 41.0595H6.69938C6.51938 41.2395 6.30938 41.3928 6.06938 41.5195C5.82938 41.6462 5.57604 41.7095 5.30938 41.7095ZM5.58938 40.7595C5.95604 40.7595 6.29938 40.5762 6.61938 40.2095V37.9195C6.45271 37.7662 6.28604 37.6595 6.11938 37.5995C5.95271 37.5395 5.78604 37.5095 5.61938 37.5095C5.30604 37.5095 5.03604 37.6528 4.80938 37.9395C4.58938 38.2195 4.47938 38.6162 4.47938 39.1295C4.47938 39.6562 4.57604 40.0595 4.76938 40.3395C4.96271 40.6195 5.23604 40.7595 5.58938 40.7595ZM11.3339 41.7095C10.8806 41.7095 10.4706 41.6095 10.1039 41.4095C9.73724 41.2028 9.44724 40.9095 9.23391 40.5295C9.02057 40.1428 8.91391 39.6795 8.91391 39.1395C8.91391 38.6062 9.02057 38.1462 9.23391 37.7595C9.45391 37.3728 9.73724 37.0762 10.0839 36.8695C10.4306 36.6628 10.7939 36.5595 11.1739 36.5595C11.6206 36.5595 11.9939 36.6595 12.2939 36.8595C12.5939 37.0528 12.8206 37.3262 12.9739 37.6795C13.1272 38.0262 13.2039 38.4295 13.2039 38.8895C13.2039 39.1295 13.1872 39.3162 13.1539 39.4495H10.0339C10.0872 39.8828 10.2439 40.2195 10.5039 40.4595C10.7639 40.6995 11.0906 40.8195 11.4839 40.8195C11.6972 40.8195 11.8939 40.7895 12.0739 40.7295C12.2606 40.6628 12.4439 40.5728 12.6239 40.4595L13.0139 41.1795C12.7806 41.3328 12.5206 41.4595 12.2339 41.5595C11.9472 41.6595 11.6472 41.7095 11.3339 41.7095ZM10.0239 38.6695H12.2039C12.2039 38.2895 12.1206 37.9928 11.9539 37.7795C11.7872 37.5595 11.5372 37.4495 11.2039 37.4495C10.9172 37.4495 10.6606 37.5562 10.4339 37.7695C10.2139 37.9762 10.0772 38.2762 10.0239 38.6695ZM14.3023 41.5895V36.6795H15.2523L15.3323 37.3395H15.3723C15.5923 37.1262 15.8323 36.9428 16.0923 36.7895C16.3523 36.6362 16.6489 36.5595 16.9823 36.5595C17.5089 36.5595 17.8923 36.7295 18.1323 37.0695C18.3723 37.4095 18.4923 37.8895 18.4923 38.5095V41.5895H17.3423V38.6595C17.3423 38.2528 17.2823 37.9662 17.1623 37.7995C17.0423 37.6328 16.8456 37.5495 16.5723 37.5495C16.3589 37.5495 16.1689 37.6028 16.0023 37.7095C15.8423 37.8095 15.6589 37.9595 15.4523 38.1595V41.5895H14.3023ZM21.628 41.7095C21.0613 41.7095 20.658 41.5462 20.418 41.2195C20.1846 40.8862 20.068 40.4562 20.068 39.9295V37.5895H19.368V36.7295L20.128 36.6795L20.268 35.3395H21.228V36.6795H22.478V37.5895H21.228V39.9295C21.228 40.5028 21.458 40.7895 21.918 40.7895C22.0046 40.7895 22.0946 40.7795 22.188 40.7595C22.2813 40.7328 22.3613 40.7062 22.428 40.6795L22.628 41.5295C22.4946 41.5762 22.3413 41.6162 22.168 41.6495C22.0013 41.6895 21.8213 41.7095 21.628 41.7095ZM23.5113 41.5895V36.6795H24.6613V41.5895H23.5113ZM24.0913 35.8195C23.8846 35.8195 23.7179 35.7595 23.5913 35.6395C23.4646 35.5195 23.4013 35.3595 23.4013 35.1595C23.4013 34.9662 23.4646 34.8095 23.5913 34.6895C23.7179 34.5695 23.8846 34.5095 24.0913 34.5095C24.2979 34.5095 24.4646 34.5695 24.5913 34.6895C24.7179 34.8095 24.7813 34.9662 24.7813 35.1595C24.7813 35.3595 24.7179 35.5195 24.5913 35.6395C24.4646 35.7595 24.2979 35.8195 24.0913 35.8195ZM27.8584 41.7095C27.2918 41.7095 26.8884 41.5462 26.6484 41.2195C26.4151 40.8862 26.2984 40.4562 26.2984 39.9295V37.5895H25.5984V36.7295L26.3584 36.6795L26.4984 35.3395H27.4584V36.6795H28.7084V37.5895H27.4584V39.9295C27.4584 40.5028 27.6884 40.7895 28.1484 40.7895C28.2351 40.7895 28.3251 40.7795 28.4184 40.7595C28.5118 40.7328 28.5918 40.7062 28.6584 40.6795L28.8584 41.5295C28.7251 41.5762 28.5718 41.6162 28.3984 41.6495C28.2318 41.6895 28.0518 41.7095 27.8584 41.7095ZM30.0717 43.6095C29.9384 43.6095 29.8217 43.5995 29.7217 43.5795C29.6217 43.5595 29.5251 43.5362 29.4317 43.5095L29.6417 42.6095C29.6884 42.6228 29.7417 42.6362 29.8017 42.6495C29.8684 42.6695 29.9317 42.6795 29.9917 42.6795C30.2517 42.6795 30.4584 42.5995 30.6117 42.4395C30.7717 42.2862 30.8917 42.0862 30.9717 41.8395L31.0617 41.5295L29.1317 36.6795H30.3017L31.1517 39.0895C31.2251 39.3028 31.2951 39.5295 31.3617 39.7695C31.4351 40.0028 31.5084 40.2362 31.5817 40.4695H31.6217C31.6817 40.2428 31.7417 40.0128 31.8017 39.7795C31.8684 39.5395 31.9317 39.3095 31.9917 39.0895L32.7317 36.6795H33.8417L32.0617 41.8095C31.8551 42.3628 31.6051 42.7995 31.3117 43.1195C31.0184 43.4462 30.6051 43.6095 30.0717 43.6095Z" fill="#14AE5C"/>
</svg>
