<svg width="35" height="45" viewBox="0 0 35 45" fill="none" xmlns="http://www.w3.org/2000/svg">
<path d="M22 14.7345H21.43C20.83 14.7345 20.26 14.967 19.84 15.387L18.5575 16.6545C17.9725 17.232 17.02 17.232 16.435 16.6545L15.1525 15.387C14.7325 14.967 14.155 14.7345 13.5625 14.7345H13C11.755 14.7345 10.75 13.737 10.75 12.507V4.31699C10.75 3.08699 11.755 2.08949 13 2.08949H22C23.245 2.08949 24.25 3.08699 24.25 4.31699V12.4995C24.25 13.7295 23.245 14.7345 22 14.7345Z" stroke="#3A3A3A" stroke-width="1.5" stroke-linecap="round" stroke-linejoin="round"/>
<path d="M17.5525 7.30199C17.5225 7.30199 17.4775 7.30199 17.44 7.30199C16.6525 7.27199 16.03 6.63449 16.03 5.83949C16.03 5.02949 16.6825 4.37699 17.4925 4.37699C18.3025 4.37699 18.955 5.03699 18.955 5.83949C18.9625 6.63449 18.34 7.27949 17.5525 7.30199Z" stroke="#3A3A3A" stroke-width="1.5" stroke-linecap="round" stroke-linejoin="round"/>
<path d="M15.4375 9.55949C14.44 10.227 14.44 11.3145 15.4375 11.982C16.57 12.7395 18.43 12.7395 19.5625 11.982C20.56 11.3145 20.56 10.227 19.5625 9.55949C18.43 8.80949 16.5775 8.80949 15.4375 9.55949Z" stroke="#3A3A3A" stroke-width="1.5" stroke-linecap="round" stroke-linejoin="round"/>
<path d="M7.30984 28.7095C6.84984 28.7095 6.42318 28.6228 6.02984 28.4495C5.63651 28.2695 5.29651 28.0328 5.00984 27.7395L5.50984 27.1595C5.74318 27.4062 6.01651 27.6062 6.32984 27.7595C6.64984 27.9062 6.97984 27.9795 7.31984 27.9795C7.75318 27.9795 8.08984 27.8828 8.32984 27.6895C8.56984 27.4895 8.68984 27.2295 8.68984 26.9095C8.68984 26.6828 8.63984 26.5028 8.53984 26.3695C8.44651 26.2362 8.31651 26.1228 8.14984 26.0295C7.98984 25.9362 7.80651 25.8428 7.59984 25.7495L6.65984 25.3395C6.45318 25.2528 6.24651 25.1395 6.03984 24.9995C5.83984 24.8595 5.66984 24.6795 5.52984 24.4595C5.39651 24.2395 5.32984 23.9695 5.32984 23.6495C5.32984 23.3162 5.41651 23.0195 5.58984 22.7595C5.76984 22.4928 6.01651 22.2862 6.32984 22.1395C6.64318 21.9862 6.99651 21.9095 7.38984 21.9095C7.78318 21.9095 8.14651 21.9862 8.47984 22.1395C8.81318 22.2862 9.09651 22.4795 9.32984 22.7195L8.87984 23.2595C8.67984 23.0662 8.45651 22.9162 8.20984 22.8095C7.96984 22.6962 7.69651 22.6395 7.38984 22.6395C7.02318 22.6395 6.72651 22.7262 6.49984 22.8995C6.27984 23.0728 6.16984 23.3062 6.16984 23.5995C6.16984 23.8062 6.22318 23.9795 6.32984 24.1195C6.44318 24.2528 6.58318 24.3628 6.74984 24.4495C6.91651 24.5362 7.08651 24.6162 7.25984 24.6895L8.18984 25.0895C8.44318 25.1962 8.66984 25.3262 8.86984 25.4795C9.07651 25.6262 9.23984 25.8095 9.35984 26.0295C9.47984 26.2428 9.53984 26.5128 9.53984 26.8395C9.53984 27.1862 9.44984 27.5028 9.26984 27.7895C9.08984 28.0695 8.83318 28.2928 8.49984 28.4595C8.16651 28.6262 7.76984 28.7095 7.30984 28.7095ZM12.0375 28.7095C11.5175 28.7095 11.1542 28.5595 10.9475 28.2595C10.7475 27.9595 10.6475 27.5695 10.6475 27.0895V24.3995H9.9275V23.7795L10.6875 23.7295L10.7875 22.3695H11.4775V23.7295H12.7875V24.3995H11.4775V27.0995C11.4775 27.3995 11.5308 27.6328 11.6375 27.7995C11.7508 27.9595 11.9475 28.0395 12.2275 28.0395C12.3142 28.0395 12.4075 28.0262 12.5075 27.9995C12.6075 27.9662 12.6975 27.9362 12.7775 27.9095L12.9375 28.5295C12.8042 28.5762 12.6575 28.6162 12.4975 28.6495C12.3442 28.6895 12.1908 28.7095 12.0375 28.7095ZM15.7197 28.7095C15.2864 28.7095 14.893 28.6095 14.5397 28.4095C14.1864 28.2028 13.9064 27.9095 13.6997 27.5295C13.493 27.1495 13.3897 26.6962 13.3897 26.1695C13.3897 25.6362 13.493 25.1795 13.6997 24.7995C13.913 24.4195 14.1864 24.1262 14.5197 23.9195C14.853 23.7128 15.203 23.6095 15.5697 23.6095C16.1897 23.6095 16.6664 23.8162 16.9997 24.2295C17.3397 24.6428 17.5097 25.1962 17.5097 25.8895C17.5097 25.9762 17.5064 26.0628 17.4997 26.1495C17.4997 26.2295 17.493 26.2995 17.4797 26.3595H14.1997C14.233 26.8728 14.393 27.2828 14.6797 27.5895C14.973 27.8962 15.353 28.0495 15.8197 28.0495C16.053 28.0495 16.2664 28.0162 16.4597 27.9495C16.6597 27.8762 16.8497 27.7828 17.0297 27.6695L17.3197 28.2095C17.113 28.3428 16.8764 28.4595 16.6097 28.5595C16.3497 28.6595 16.053 28.7095 15.7197 28.7095ZM14.1897 25.7695H16.7897C16.7897 25.2762 16.683 24.9028 16.4697 24.6495C16.263 24.3895 15.9697 24.2595 15.5897 24.2595C15.2497 24.2595 14.943 24.3928 14.6697 24.6595C14.403 24.9195 14.243 25.2895 14.1897 25.7695ZM18.7106 30.6395V23.7295H19.3906L19.4606 24.2895H19.4906C19.7106 24.1028 19.9506 23.9428 20.2106 23.8095C20.4773 23.6762 20.754 23.6095 21.0406 23.6095C21.6673 23.6095 22.144 23.8362 22.4706 24.2895C22.7973 24.7362 22.9606 25.3362 22.9606 26.0895C22.9606 26.6362 22.8606 27.1062 22.6606 27.4995C22.4673 27.8928 22.2106 28.1928 21.8906 28.3995C21.5773 28.6062 21.234 28.7095 20.8606 28.7095C20.634 28.7095 20.4073 28.6595 20.1806 28.5595C19.9606 28.4595 19.7373 28.3228 19.5106 28.1495L19.5306 28.9995V30.6395H18.7106ZM20.7206 28.0195C21.1206 28.0195 21.4506 27.8495 21.7106 27.5095C21.9773 27.1628 22.1106 26.6895 22.1106 26.0895C22.1106 25.5562 22.0106 25.1262 21.8106 24.7995C21.6173 24.4662 21.2906 24.2995 20.8306 24.2995C20.624 24.2995 20.414 24.3562 20.2006 24.4695C19.994 24.5828 19.7706 24.7462 19.5306 24.9595V27.5095C19.7506 27.6962 19.964 27.8295 20.1706 27.9095C20.3773 27.9828 20.5606 28.0195 20.7206 28.0195ZM26.2295 28.5895V27.9095H27.6895V23.2095H26.5295V22.6795C26.8228 22.6262 27.0761 22.5628 27.2895 22.4895C27.5095 22.4095 27.7061 22.3162 27.8795 22.2095H28.5095V27.9095H29.8295V28.5895H26.2295ZM1.36711 41.5895V35.0495H2.52711V41.5895H1.36711ZM5.80938 41.7095C5.19604 41.7095 4.70604 41.4828 4.33938 41.0295C3.97271 40.5762 3.78938 39.9462 3.78938 39.1395C3.78938 38.6062 3.88604 38.1462 4.07938 37.7595C4.27938 37.3728 4.53938 37.0762 4.85938 36.8695C5.17938 36.6628 5.51604 36.5595 5.86938 36.5595C6.14938 36.5595 6.38604 36.6095 6.57938 36.7095C6.77938 36.8028 6.97271 36.9328 7.15938 37.0995L7.11938 36.3095V34.5295H8.26938V41.5895H7.31938L7.23938 41.0595H7.19938C7.01938 41.2395 6.80938 41.3928 6.56938 41.5195C6.32938 41.6462 6.07604 41.7095 5.80938 41.7095ZM6.08938 40.7595C6.45604 40.7595 6.79938 40.5762 7.11938 40.2095V37.9195C6.95271 37.7662 6.78604 37.6595 6.61938 37.5995C6.45271 37.5395 6.28604 37.5095 6.11938 37.5095C5.80604 37.5095 5.53604 37.6528 5.30938 37.9395C5.08938 38.2195 4.97938 38.6162 4.97938 39.1295C4.97938 39.6562 5.07604 40.0595 5.26938 40.3395C5.46271 40.6195 5.73604 40.7595 6.08938 40.7595ZM11.8339 41.7095C11.3806 41.7095 10.9706 41.6095 10.6039 41.4095C10.2372 41.2028 9.94724 40.9095 9.73391 40.5295C9.52057 40.1428 9.41391 39.6795 9.41391 39.1395C9.41391 38.6062 9.52057 38.1462 9.73391 37.7595C9.95391 37.3728 10.2372 37.0762 10.5839 36.8695C10.9306 36.6628 11.2939 36.5595 11.6739 36.5595C12.1206 36.5595 12.4939 36.6595 12.7939 36.8595C13.0939 37.0528 13.3206 37.3262 13.4739 37.6795C13.6272 38.0262 13.7039 38.4295 13.7039 38.8895C13.7039 39.1295 13.6872 39.3162 13.6539 39.4495H10.5339C10.5872 39.8828 10.7439 40.2195 11.0039 40.4595C11.2639 40.6995 11.5906 40.8195 11.9839 40.8195C12.1972 40.8195 12.3939 40.7895 12.5739 40.7295C12.7606 40.6628 12.9439 40.5728 13.1239 40.4595L13.5139 41.1795C13.2806 41.3328 13.0206 41.4595 12.7339 41.5595C12.4472 41.6595 12.1472 41.7095 11.8339 41.7095ZM10.5239 38.6695H12.7039C12.7039 38.2895 12.6206 37.9928 12.4539 37.7795C12.2872 37.5595 12.0372 37.4495 11.7039 37.4495C11.4172 37.4495 11.1606 37.5562 10.9339 37.7695C10.7139 37.9762 10.5772 38.2762 10.5239 38.6695ZM14.8023 41.5895V36.6795H15.7523L15.8323 37.3395H15.8723C16.0923 37.1262 16.3323 36.9428 16.5923 36.7895C16.8523 36.6362 17.1489 36.5595 17.4823 36.5595C18.0089 36.5595 18.3923 36.7295 18.6323 37.0695C18.8723 37.4095 18.9923 37.8895 18.9923 38.5095V41.5895H17.8423V38.6595C17.8423 38.2528 17.7823 37.9662 17.6623 37.7995C17.5423 37.6328 17.3456 37.5495 17.0723 37.5495C16.8589 37.5495 16.6689 37.6028 16.5023 37.7095C16.3423 37.8095 16.1589 37.9595 15.9523 38.1595V41.5895H14.8023ZM22.128 41.7095C21.5613 41.7095 21.158 41.5462 20.918 41.2195C20.6846 40.8862 20.568 40.4562 20.568 39.9295V37.5895H19.868V36.7295L20.628 36.6795L20.768 35.3395H21.728V36.6795H22.978V37.5895H21.728V39.9295C21.728 40.5028 21.958 40.7895 22.418 40.7895C22.5046 40.7895 22.5946 40.7795 22.688 40.7595C22.7813 40.7328 22.8613 40.7062 22.928 40.6795L23.128 41.5295C22.9946 41.5762 22.8413 41.6162 22.668 41.6495C22.5013 41.6895 22.3213 41.7095 22.128 41.7095ZM24.0113 41.5895V36.6795H25.1613V41.5895H24.0113ZM24.5913 35.8195C24.3846 35.8195 24.2179 35.7595 24.0913 35.6395C23.9646 35.5195 23.9013 35.3595 23.9013 35.1595C23.9013 34.9662 23.9646 34.8095 24.0913 34.6895C24.2179 34.5695 24.3846 34.5095 24.5913 34.5095C24.7979 34.5095 24.9646 34.5695 25.0913 34.6895C25.2179 34.8095 25.2813 34.9662 25.2813 35.1595C25.2813 35.3595 25.2179 35.5195 25.0913 35.6395C24.9646 35.7595 24.7979 35.8195 24.5913 35.8195ZM28.3584 41.7095C27.7918 41.7095 27.3884 41.5462 27.1484 41.2195C26.9151 40.8862 26.7984 40.4562 26.7984 39.9295V37.5895H26.0984V36.7295L26.8584 36.6795L26.9984 35.3395H27.9584V36.6795H29.2084V37.5895H27.9584V39.9295C27.9584 40.5028 28.1884 40.7895 28.6484 40.7895C28.7351 40.7895 28.8251 40.7795 28.9184 40.7595C29.0118 40.7328 29.0918 40.7062 29.1584 40.6795L29.3584 41.5295C29.2251 41.5762 29.0718 41.6162 28.8984 41.6495C28.7318 41.6895 28.5518 41.7095 28.3584 41.7095ZM30.5717 43.6095C30.4384 43.6095 30.3217 43.5995 30.2217 43.5795C30.1217 43.5595 30.0251 43.5362 29.9317 43.5095L30.1417 42.6095C30.1884 42.6228 30.2417 42.6362 30.3017 42.6495C30.3684 42.6695 30.4317 42.6795 30.4917 42.6795C30.7517 42.6795 30.9584 42.5995 31.1117 42.4395C31.2717 42.2862 31.3917 42.0862 31.4717 41.8395L31.5617 41.5295L29.6317 36.6795H30.8017L31.6517 39.0895C31.7251 39.3028 31.7951 39.5295 31.8617 39.7695C31.9351 40.0028 32.0084 40.2362 32.0817 40.4695H32.1217C32.1817 40.2428 32.2417 40.0128 32.3017 39.7795C32.3684 39.5395 32.4317 39.3095 32.4917 39.0895L33.2317 36.6795H34.3417L32.5617 41.8095C32.3551 42.3628 32.1051 42.7995 31.8117 43.1195C31.5184 43.4462 31.1051 43.6095 30.5717 43.6095Z" fill="#3A3A3A"/>
</svg>
