<svg width="37" height="45" viewBox="0 0 37 45" fill="none" xmlns="http://www.w3.org/2000/svg">
<g clip-path="url(#clip0_100_329)">
<path d="M14.75 8.83949V5.83949C14.75 4.84493 15.1451 3.8911 15.8483 3.18784C16.5516 2.48458 17.5054 2.08949 18.5 2.08949C19.4946 2.08949 20.4484 2.48458 21.1517 3.18784C21.8549 3.8911 22.25 4.84493 22.25 5.83949V8.83949M13.25 8.83949H23.75C24.5784 8.83949 25.25 9.51107 25.25 10.3395V15.5895C25.25 16.4179 24.5784 17.0895 23.75 17.0895H13.25C12.4216 17.0895 11.75 16.4179 11.75 15.5895V10.3395C11.75 9.51107 12.4216 8.83949 13.25 8.83949Z" stroke="#3A3A3A" stroke-width="2" stroke-linecap="round" stroke-linejoin="round"/>
</g>
<path d="M8.30984 28.7095C7.84984 28.7095 7.42318 28.6228 7.02984 28.4495C6.63651 28.2695 6.29651 28.0328 6.00984 27.7395L6.50984 27.1595C6.74318 27.4062 7.01651 27.6062 7.32984 27.7595C7.64984 27.9062 7.97984 27.9795 8.31984 27.9795C8.75318 27.9795 9.08984 27.8828 9.32984 27.6895C9.56984 27.4895 9.68984 27.2295 9.68984 26.9095C9.68984 26.6828 9.63984 26.5028 9.53984 26.3695C9.44651 26.2362 9.31651 26.1228 9.14984 26.0295C8.98984 25.9362 8.80651 25.8428 8.59984 25.7495L7.65984 25.3395C7.45318 25.2528 7.24651 25.1395 7.03984 24.9995C6.83984 24.8595 6.66984 24.6795 6.52984 24.4595C6.39651 24.2395 6.32984 23.9695 6.32984 23.6495C6.32984 23.3162 6.41651 23.0195 6.58984 22.7595C6.76984 22.4928 7.01651 22.2862 7.32984 22.1395C7.64318 21.9862 7.99651 21.9095 8.38984 21.9095C8.78318 21.9095 9.14651 21.9862 9.47984 22.1395C9.81318 22.2862 10.0965 22.4795 10.3298 22.7195L9.87984 23.2595C9.67984 23.0662 9.45651 22.9162 9.20984 22.8095C8.96984 22.6962 8.69651 22.6395 8.38984 22.6395C8.02318 22.6395 7.72651 22.7262 7.49984 22.8995C7.27984 23.0728 7.16984 23.3062 7.16984 23.5995C7.16984 23.8062 7.22318 23.9795 7.32984 24.1195C7.44318 24.2528 7.58318 24.3628 7.74984 24.4495C7.91651 24.5362 8.08651 24.6162 8.25984 24.6895L9.18984 25.0895C9.44318 25.1962 9.66984 25.3262 9.86984 25.4795C10.0765 25.6262 10.2398 25.8095 10.3598 26.0295C10.4798 26.2428 10.5398 26.5128 10.5398 26.8395C10.5398 27.1862 10.4498 27.5028 10.2698 27.7895C10.0898 28.0695 9.83318 28.2928 9.49984 28.4595C9.16651 28.6262 8.76984 28.7095 8.30984 28.7095ZM13.0375 28.7095C12.5175 28.7095 12.1542 28.5595 11.9475 28.2595C11.7475 27.9595 11.6475 27.5695 11.6475 27.0895V24.3995H10.9275V23.7795L11.6875 23.7295L11.7875 22.3695H12.4775V23.7295H13.7875V24.3995H12.4775V27.0995C12.4775 27.3995 12.5308 27.6328 12.6375 27.7995C12.7508 27.9595 12.9475 28.0395 13.2275 28.0395C13.3142 28.0395 13.4075 28.0262 13.5075 27.9995C13.6075 27.9662 13.6975 27.9362 13.7775 27.9095L13.9375 28.5295C13.8042 28.5762 13.6575 28.6162 13.4975 28.6495C13.3442 28.6895 13.1908 28.7095 13.0375 28.7095ZM16.7197 28.7095C16.2864 28.7095 15.893 28.6095 15.5397 28.4095C15.1864 28.2028 14.9064 27.9095 14.6997 27.5295C14.493 27.1495 14.3897 26.6962 14.3897 26.1695C14.3897 25.6362 14.493 25.1795 14.6997 24.7995C14.913 24.4195 15.1864 24.1262 15.5197 23.9195C15.853 23.7128 16.203 23.6095 16.5697 23.6095C17.1897 23.6095 17.6664 23.8162 17.9997 24.2295C18.3397 24.6428 18.5097 25.1962 18.5097 25.8895C18.5097 25.9762 18.5064 26.0628 18.4997 26.1495C18.4997 26.2295 18.493 26.2995 18.4797 26.3595H15.1997C15.233 26.8728 15.393 27.2828 15.6797 27.5895C15.973 27.8962 16.353 28.0495 16.8197 28.0495C17.053 28.0495 17.2664 28.0162 17.4597 27.9495C17.6597 27.8762 17.8497 27.7828 18.0297 27.6695L18.3197 28.2095C18.113 28.3428 17.8764 28.4595 17.6097 28.5595C17.3497 28.6595 17.053 28.7095 16.7197 28.7095ZM15.1897 25.7695H17.7897C17.7897 25.2762 17.683 24.9028 17.4697 24.6495C17.263 24.3895 16.9697 24.2595 16.5897 24.2595C16.2497 24.2595 15.943 24.3928 15.6697 24.6595C15.403 24.9195 15.243 25.2895 15.1897 25.7695ZM19.7106 30.6395V23.7295H20.3906L20.4606 24.2895H20.4906C20.7106 24.1028 20.9506 23.9428 21.2106 23.8095C21.4773 23.6762 21.754 23.6095 22.0406 23.6095C22.6673 23.6095 23.144 23.8362 23.4706 24.2895C23.7973 24.7362 23.9606 25.3362 23.9606 26.0895C23.9606 26.6362 23.8606 27.1062 23.6606 27.4995C23.4673 27.8928 23.2106 28.1928 22.8906 28.3995C22.5773 28.6062 22.234 28.7095 21.8606 28.7095C21.634 28.7095 21.4073 28.6595 21.1806 28.5595C20.9606 28.4595 20.7373 28.3228 20.5106 28.1495L20.5306 28.9995V30.6395H19.7106ZM21.7206 28.0195C22.1206 28.0195 22.4506 27.8495 22.7106 27.5095C22.9773 27.1628 23.1106 26.6895 23.1106 26.0895C23.1106 25.5562 23.0106 25.1262 22.8106 24.7995C22.6173 24.4662 22.2906 24.2995 21.8306 24.2995C21.624 24.2995 21.414 24.3562 21.2006 24.4695C20.994 24.5828 20.7706 24.7462 20.5306 24.9595V27.5095C20.7506 27.6962 20.964 27.8295 21.1706 27.9095C21.3773 27.9828 21.5606 28.0195 21.7206 28.0195ZM28.7995 28.7095C28.2928 28.7095 27.8695 28.6195 27.5295 28.4395C27.1895 28.2528 26.9128 28.0428 26.6995 27.8095L27.1195 27.2695C27.3128 27.4695 27.5395 27.6462 27.7995 27.7995C28.0595 27.9528 28.3761 28.0295 28.7495 28.0295C29.1361 28.0295 29.4528 27.9228 29.6995 27.7095C29.9461 27.4962 30.0695 27.2128 30.0695 26.8595C30.0695 26.6062 30.0028 26.3862 29.8695 26.1995C29.7428 26.0062 29.5295 25.8562 29.2295 25.7495C28.9361 25.6428 28.5361 25.5895 28.0295 25.5895V24.9595C28.4828 24.9595 28.8395 24.9062 29.0995 24.7995C29.3661 24.6928 29.5561 24.5495 29.6695 24.3695C29.7828 24.1895 29.8395 23.9895 29.8395 23.7695C29.8395 23.4562 29.7395 23.2095 29.5395 23.0295C29.3461 22.8495 29.0795 22.7595 28.7395 22.7595C28.4728 22.7595 28.2261 22.8195 27.9995 22.9395C27.7795 23.0595 27.5728 23.2162 27.3795 23.4095L26.9395 22.8895C27.1861 22.6562 27.4595 22.4662 27.7595 22.3195C28.0595 22.1662 28.3961 22.0895 28.7695 22.0895C29.3228 22.0895 29.7795 22.2328 30.1395 22.5195C30.4995 22.7995 30.6795 23.1962 30.6795 23.7095C30.6795 24.0962 30.5728 24.4128 30.3595 24.6595C30.1461 24.9062 29.8661 25.0962 29.5195 25.2295V25.2695C29.9061 25.3562 30.2328 25.5395 30.4995 25.8195C30.7661 26.0928 30.8995 26.4495 30.8995 26.8895C30.8995 27.2628 30.8061 27.5862 30.6195 27.8595C30.4328 28.1328 30.1795 28.3428 29.8595 28.4895C29.5461 28.6362 29.1928 28.7095 28.7995 28.7095ZM3.43727 41.7095C2.99727 41.7095 2.5706 41.6262 2.15727 41.4595C1.7506 41.2928 1.3906 41.0562 1.07727 40.7495L1.75727 39.9595C1.9906 40.1795 2.25727 40.3595 2.55727 40.4995C2.85727 40.6328 3.15727 40.6995 3.45727 40.6995C3.8306 40.6995 4.11393 40.6228 4.30727 40.4695C4.5006 40.3162 4.59727 40.1128 4.59727 39.8595C4.59727 39.5862 4.5006 39.3895 4.30727 39.2695C4.1206 39.1495 3.8806 39.0262 3.58727 38.8995L2.68727 38.5095C2.47393 38.4162 2.26393 38.2962 2.05727 38.1495C1.85727 38.0028 1.6906 37.8162 1.55727 37.5895C1.4306 37.3628 1.36727 37.0895 1.36727 36.7695C1.36727 36.4228 1.4606 36.1128 1.64727 35.8395C1.8406 35.5595 2.1006 35.3395 2.42727 35.1795C2.7606 35.0128 3.1406 34.9295 3.56727 34.9295C3.94727 34.9295 4.31393 35.0062 4.66727 35.1595C5.0206 35.3062 5.32393 35.5062 5.57727 35.7595L4.98727 36.4995C4.7806 36.3262 4.5606 36.1895 4.32727 36.0895C4.1006 35.9895 3.84727 35.9395 3.56727 35.9395C3.2606 35.9395 3.0106 36.0095 2.81727 36.1495C2.6306 36.2828 2.53727 36.4695 2.53727 36.7095C2.53727 36.8762 2.58393 37.0162 2.67727 37.1295C2.77727 37.2362 2.90727 37.3295 3.06727 37.4095C3.22727 37.4828 3.39727 37.5562 3.57727 37.6295L4.46727 37.9995C4.85393 38.1662 5.1706 38.3862 5.41727 38.6595C5.66393 38.9262 5.78727 39.2962 5.78727 39.7695C5.78727 40.1228 5.69393 40.4462 5.50727 40.7395C5.3206 41.0328 5.0506 41.2695 4.69727 41.4495C4.3506 41.6228 3.9306 41.7095 3.43727 41.7095ZM8.97648 41.7095C8.52315 41.7095 8.11315 41.6095 7.74648 41.4095C7.37982 41.2028 7.08982 40.9095 6.87648 40.5295C6.66315 40.1428 6.55648 39.6795 6.55648 39.1395C6.55648 38.6062 6.66315 38.1462 6.87648 37.7595C7.09648 37.3728 7.37982 37.0762 7.72648 36.8695C8.07315 36.6628 8.43648 36.5595 8.81648 36.5595C9.26315 36.5595 9.63648 36.6595 9.93648 36.8595C10.2365 37.0528 10.4632 37.3262 10.6165 37.6795C10.7698 38.0262 10.8465 38.4295 10.8465 38.8895C10.8465 39.1295 10.8298 39.3162 10.7965 39.4495H7.67648C7.72982 39.8828 7.88648 40.2195 8.14648 40.4595C8.40648 40.6995 8.73315 40.8195 9.12648 40.8195C9.33982 40.8195 9.53648 40.7895 9.71648 40.7295C9.90315 40.6628 10.0865 40.5728 10.2665 40.4595L10.6565 41.1795C10.4232 41.3328 10.1632 41.4595 9.87648 41.5595C9.58982 41.6595 9.28982 41.7095 8.97648 41.7095ZM7.66648 38.6695H9.84648C9.84648 38.2895 9.76315 37.9928 9.59648 37.7795C9.42982 37.5595 9.17982 37.4495 8.84648 37.4495C8.55982 37.4495 8.30315 37.5562 8.07648 37.7695C7.85648 37.9762 7.71982 38.2762 7.66648 38.6695ZM13.9948 41.7095C13.5482 41.7095 13.1448 41.6095 12.7848 41.4095C12.4315 41.2028 12.1482 40.9095 11.9348 40.5295C11.7282 40.1428 11.6248 39.6795 11.6248 39.1395C11.6248 38.5928 11.7382 38.1295 11.9648 37.7495C12.1915 37.3628 12.4915 37.0695 12.8648 36.8695C13.2448 36.6628 13.6515 36.5595 14.0848 36.5595C14.3982 36.5595 14.6715 36.6128 14.9048 36.7195C15.1382 36.8262 15.3448 36.9562 15.5248 37.1095L14.9648 37.8595C14.8382 37.7462 14.7082 37.6595 14.5748 37.5995C14.4415 37.5328 14.2982 37.4995 14.1448 37.4995C13.7515 37.4995 13.4282 37.6495 13.1748 37.9495C12.9282 38.2495 12.8048 38.6462 12.8048 39.1395C12.8048 39.6262 12.9248 40.0195 13.1648 40.3195C13.4115 40.6195 13.7282 40.7695 14.1148 40.7695C14.3082 40.7695 14.4882 40.7295 14.6548 40.6495C14.8282 40.5628 14.9848 40.4628 15.1248 40.3495L15.5948 41.1095C15.3682 41.3095 15.1148 41.4595 14.8348 41.5595C14.5548 41.6595 14.2748 41.7095 13.9948 41.7095ZM18.024 41.7095C17.4973 41.7095 17.114 41.5395 16.874 41.1995C16.634 40.8595 16.514 40.3795 16.514 39.7595V36.6795H17.664V39.6095C17.664 40.0162 17.724 40.3028 17.844 40.4695C17.964 40.6362 18.1573 40.7195 18.424 40.7195C18.6373 40.7195 18.824 40.6662 18.984 40.5595C19.1507 40.4528 19.3273 40.2795 19.514 40.0395V36.6795H20.664V41.5895H19.724L19.634 40.8695H19.604C19.3907 41.1228 19.1573 41.3262 18.904 41.4795C18.6507 41.6328 18.3573 41.7095 18.024 41.7095ZM22.1206 41.5895V36.6795H23.0706L23.1506 37.5495H23.1906C23.364 37.2295 23.574 36.9862 23.8206 36.8195C24.0673 36.6462 24.3206 36.5595 24.5806 36.5595C24.814 36.5595 25.0006 36.5928 25.1406 36.6595L24.9406 37.6595C24.854 37.6328 24.774 37.6128 24.7006 37.5995C24.6273 37.5862 24.5373 37.5795 24.4306 37.5795C24.2373 37.5795 24.034 37.6562 23.8206 37.8095C23.6073 37.9562 23.424 38.2162 23.2706 38.5895V41.5895H22.1206ZM25.8511 41.5895V36.6795H27.0011V41.5895H25.8511ZM26.4311 35.8195C26.2244 35.8195 26.0578 35.7595 25.9311 35.6395C25.8044 35.5195 25.7411 35.3595 25.7411 35.1595C25.7411 34.9662 25.8044 34.8095 25.9311 34.6895C26.0578 34.5695 26.2244 34.5095 26.4311 34.5095C26.6378 34.5095 26.8044 34.5695 26.9311 34.6895C27.0578 34.8095 27.1211 34.9662 27.1211 35.1595C27.1211 35.3595 27.0578 35.5195 26.9311 35.6395C26.8044 35.7595 26.6378 35.8195 26.4311 35.8195ZM30.1983 41.7095C29.6316 41.7095 29.2283 41.5462 28.9883 41.2195C28.7549 40.8862 28.6383 40.4562 28.6383 39.9295V37.5895H27.9383V36.7295L28.6983 36.6795L28.8383 35.3395H29.7983V36.6795H31.0483V37.5895H29.7983V39.9295C29.7983 40.5028 30.0283 40.7895 30.4883 40.7895C30.5749 40.7895 30.6649 40.7795 30.7583 40.7595C30.8516 40.7328 30.9316 40.7062 30.9983 40.6795L31.1983 41.5295C31.0649 41.5762 30.9116 41.6162 30.7383 41.6495C30.5716 41.6895 30.3916 41.7095 30.1983 41.7095ZM32.4116 43.6095C32.2782 43.6095 32.1616 43.5995 32.0616 43.5795C31.9616 43.5595 31.8649 43.5362 31.7716 43.5095L31.9816 42.6095C32.0282 42.6228 32.0816 42.6362 32.1416 42.6495C32.2082 42.6695 32.2716 42.6795 32.3316 42.6795C32.5916 42.6795 32.7982 42.5995 32.9516 42.4395C33.1116 42.2862 33.2316 42.0862 33.3116 41.8395L33.4016 41.5295L31.4716 36.6795H32.6416L33.4916 39.0895C33.5649 39.3028 33.6349 39.5295 33.7016 39.7695C33.7749 40.0028 33.8482 40.2362 33.9216 40.4695H33.9616C34.0216 40.2428 34.0816 40.0128 34.1416 39.7795C34.2082 39.5395 34.2716 39.3095 34.3316 39.0895L35.0716 36.6795H36.1816L34.4016 41.8095C34.1949 42.3628 33.9449 42.7995 33.6516 43.1195C33.3582 43.4462 32.9449 43.6095 32.4116 43.6095Z" fill="#3A3A3A"/>
<defs>
<clipPath id="clip0_100_329">
<rect width="18" height="18" fill="white" transform="translate(9.5 0.589493)"/>
</clipPath>
</defs>
</svg>
