<svg width="36" height="45" viewBox="0 0 36 45" fill="none" xmlns="http://www.w3.org/2000/svg">
<path d="M24 5.08949L15.75 13.3395L12 9.58949" stroke="#14AE5C" stroke-width="4" stroke-linecap="round" stroke-linejoin="round"/>
<path d="M7.80984 28.7095C7.34984 28.7095 6.92318 28.6228 6.52984 28.4495C6.13651 28.2695 5.79651 28.0328 5.50984 27.7395L6.00984 27.1595C6.24318 27.4062 6.51651 27.6062 6.82984 27.7595C7.14984 27.9062 7.47984 27.9795 7.81984 27.9795C8.25318 27.9795 8.58984 27.8828 8.82984 27.6895C9.06984 27.4895 9.18984 27.2295 9.18984 26.9095C9.18984 26.6828 9.13984 26.5028 9.03984 26.3695C8.94651 26.2362 8.81651 26.1228 8.64984 26.0295C8.48984 25.9362 8.30651 25.8428 8.09984 25.7495L7.15984 25.3395C6.95318 25.2528 6.74651 25.1395 6.53984 24.9995C6.33984 24.8595 6.16984 24.6795 6.02984 24.4595C5.89651 24.2395 5.82984 23.9695 5.82984 23.6495C5.82984 23.3162 5.91651 23.0195 6.08984 22.7595C6.26984 22.4928 6.51651 22.2862 6.82984 22.1395C7.14318 21.9862 7.49651 21.9095 7.88984 21.9095C8.28318 21.9095 8.64651 21.9862 8.97984 22.1395C9.31318 22.2862 9.59651 22.4795 9.82984 22.7195L9.37984 23.2595C9.17984 23.0662 8.95651 22.9162 8.70984 22.8095C8.46984 22.6962 8.19651 22.6395 7.88984 22.6395C7.52318 22.6395 7.22651 22.7262 6.99984 22.8995C6.77984 23.0728 6.66984 23.3062 6.66984 23.5995C6.66984 23.8062 6.72318 23.9795 6.82984 24.1195C6.94318 24.2528 7.08318 24.3628 7.24984 24.4495C7.41651 24.5362 7.58651 24.6162 7.75984 24.6895L8.68984 25.0895C8.94318 25.1962 9.16984 25.3262 9.36984 25.4795C9.57651 25.6262 9.73984 25.8095 9.85984 26.0295C9.97984 26.2428 10.0398 26.5128 10.0398 26.8395C10.0398 27.1862 9.94984 27.5028 9.76984 27.7895C9.58984 28.0695 9.33318 28.2928 8.99984 28.4595C8.66651 28.6262 8.26984 28.7095 7.80984 28.7095ZM12.5375 28.7095C12.0175 28.7095 11.6542 28.5595 11.4475 28.2595C11.2475 27.9595 11.1475 27.5695 11.1475 27.0895V24.3995H10.4275V23.7795L11.1875 23.7295L11.2875 22.3695H11.9775V23.7295H13.2875V24.3995H11.9775V27.0995C11.9775 27.3995 12.0308 27.6328 12.1375 27.7995C12.2508 27.9595 12.4475 28.0395 12.7275 28.0395C12.8142 28.0395 12.9075 28.0262 13.0075 27.9995C13.1075 27.9662 13.1975 27.9362 13.2775 27.9095L13.4375 28.5295C13.3042 28.5762 13.1575 28.6162 12.9975 28.6495C12.8442 28.6895 12.6908 28.7095 12.5375 28.7095ZM16.2197 28.7095C15.7864 28.7095 15.393 28.6095 15.0397 28.4095C14.6864 28.2028 14.4064 27.9095 14.1997 27.5295C13.993 27.1495 13.8897 26.6962 13.8897 26.1695C13.8897 25.6362 13.993 25.1795 14.1997 24.7995C14.413 24.4195 14.6864 24.1262 15.0197 23.9195C15.353 23.7128 15.703 23.6095 16.0697 23.6095C16.6897 23.6095 17.1664 23.8162 17.4997 24.2295C17.8397 24.6428 18.0097 25.1962 18.0097 25.8895C18.0097 25.9762 18.0064 26.0628 17.9997 26.1495C17.9997 26.2295 17.993 26.2995 17.9797 26.3595H14.6997C14.733 26.8728 14.893 27.2828 15.1797 27.5895C15.473 27.8962 15.853 28.0495 16.3197 28.0495C16.553 28.0495 16.7664 28.0162 16.9597 27.9495C17.1597 27.8762 17.3497 27.7828 17.5297 27.6695L17.8197 28.2095C17.613 28.3428 17.3764 28.4595 17.1097 28.5595C16.8497 28.6595 16.553 28.7095 16.2197 28.7095ZM14.6897 25.7695H17.2897C17.2897 25.2762 17.183 24.9028 16.9697 24.6495C16.763 24.3895 16.4697 24.2595 16.0897 24.2595C15.7497 24.2595 15.443 24.3928 15.1697 24.6595C14.903 24.9195 14.743 25.2895 14.6897 25.7695ZM19.2106 30.6395V23.7295H19.8906L19.9606 24.2895H19.9906C20.2106 24.1028 20.4506 23.9428 20.7106 23.8095C20.9773 23.6762 21.254 23.6095 21.5406 23.6095C22.1673 23.6095 22.644 23.8362 22.9706 24.2895C23.2973 24.7362 23.4606 25.3362 23.4606 26.0895C23.4606 26.6362 23.3606 27.1062 23.1606 27.4995C22.9673 27.8928 22.7106 28.1928 22.3906 28.3995C22.0773 28.6062 21.734 28.7095 21.3606 28.7095C21.134 28.7095 20.9073 28.6595 20.6806 28.5595C20.4606 28.4595 20.2373 28.3228 20.0106 28.1495L20.0306 28.9995V30.6395H19.2106ZM21.2206 28.0195C21.6206 28.0195 21.9506 27.8495 22.2106 27.5095C22.4773 27.1628 22.6106 26.6895 22.6106 26.0895C22.6106 25.5562 22.5106 25.1262 22.3106 24.7995C22.1173 24.4662 21.7906 24.2995 21.3306 24.2995C21.124 24.2995 20.914 24.3562 20.7006 24.4695C20.494 24.5828 20.2706 24.7462 20.0306 24.9595V27.5095C20.2506 27.6962 20.464 27.8295 20.6706 27.9095C20.8773 27.9828 21.0606 28.0195 21.2206 28.0195ZM28.2995 28.7095C27.7928 28.7095 27.3695 28.6195 27.0295 28.4395C26.6895 28.2528 26.4128 28.0428 26.1995 27.8095L26.6195 27.2695C26.8128 27.4695 27.0395 27.6462 27.2995 27.7995C27.5595 27.9528 27.8761 28.0295 28.2495 28.0295C28.6361 28.0295 28.9528 27.9228 29.1995 27.7095C29.4461 27.4962 29.5695 27.2128 29.5695 26.8595C29.5695 26.6062 29.5028 26.3862 29.3695 26.1995C29.2428 26.0062 29.0295 25.8562 28.7295 25.7495C28.4361 25.6428 28.0361 25.5895 27.5295 25.5895V24.9595C27.9828 24.9595 28.3395 24.9062 28.5995 24.7995C28.8661 24.6928 29.0561 24.5495 29.1695 24.3695C29.2828 24.1895 29.3395 23.9895 29.3395 23.7695C29.3395 23.4562 29.2395 23.2095 29.0395 23.0295C28.8461 22.8495 28.5795 22.7595 28.2395 22.7595C27.9728 22.7595 27.7261 22.8195 27.4995 22.9395C27.2795 23.0595 27.0728 23.2162 26.8795 23.4095L26.4395 22.8895C26.6861 22.6562 26.9595 22.4662 27.2595 22.3195C27.5595 22.1662 27.8961 22.0895 28.2695 22.0895C28.8228 22.0895 29.2795 22.2328 29.6395 22.5195C29.9995 22.7995 30.1795 23.1962 30.1795 23.7095C30.1795 24.0962 30.0728 24.4128 29.8595 24.6595C29.6461 24.9062 29.3661 25.0962 29.0195 25.2295V25.2695C29.4061 25.3562 29.7328 25.5395 29.9995 25.8195C30.2661 26.0928 30.3995 26.4495 30.3995 26.8895C30.3995 27.2628 30.3061 27.5862 30.1195 27.8595C29.9328 28.1328 29.6795 28.3428 29.3595 28.4895C29.0461 28.6362 28.6928 28.7095 28.2995 28.7095ZM2.93727 41.7095C2.49727 41.7095 2.0706 41.6262 1.65727 41.4595C1.2506 41.2928 0.890599 41.0562 0.577266 40.7495L1.25727 39.9595C1.4906 40.1795 1.75727 40.3595 2.05727 40.4995C2.35727 40.6328 2.65727 40.6995 2.95727 40.6995C3.3306 40.6995 3.61393 40.6228 3.80727 40.4695C4.0006 40.3162 4.09727 40.1128 4.09727 39.8595C4.09727 39.5862 4.0006 39.3895 3.80727 39.2695C3.6206 39.1495 3.3806 39.0262 3.08727 38.8995L2.18727 38.5095C1.97393 38.4162 1.76393 38.2962 1.55727 38.1495C1.35727 38.0028 1.1906 37.8162 1.05727 37.5895C0.930599 37.3628 0.867266 37.0895 0.867266 36.7695C0.867266 36.4228 0.960599 36.1128 1.14727 35.8395C1.3406 35.5595 1.6006 35.3395 1.92727 35.1795C2.2606 35.0128 2.6406 34.9295 3.06727 34.9295C3.44727 34.9295 3.81393 35.0062 4.16727 35.1595C4.5206 35.3062 4.82393 35.5062 5.07727 35.7595L4.48727 36.4995C4.2806 36.3262 4.0606 36.1895 3.82727 36.0895C3.6006 35.9895 3.34727 35.9395 3.06727 35.9395C2.7606 35.9395 2.5106 36.0095 2.31727 36.1495C2.1306 36.2828 2.03727 36.4695 2.03727 36.7095C2.03727 36.8762 2.08393 37.0162 2.17727 37.1295C2.27727 37.2362 2.40727 37.3295 2.56727 37.4095C2.72727 37.4828 2.89727 37.5562 3.07727 37.6295L3.96727 37.9995C4.35393 38.1662 4.6706 38.3862 4.91727 38.6595C5.16393 38.9262 5.28727 39.2962 5.28727 39.7695C5.28727 40.1228 5.19393 40.4462 5.00727 40.7395C4.8206 41.0328 4.5506 41.2695 4.19727 41.4495C3.8506 41.6228 3.4306 41.7095 2.93727 41.7095ZM8.47648 41.7095C8.02315 41.7095 7.61315 41.6095 7.24648 41.4095C6.87982 41.2028 6.58982 40.9095 6.37648 40.5295C6.16315 40.1428 6.05648 39.6795 6.05648 39.1395C6.05648 38.6062 6.16315 38.1462 6.37648 37.7595C6.59648 37.3728 6.87982 37.0762 7.22648 36.8695C7.57315 36.6628 7.93648 36.5595 8.31648 36.5595C8.76315 36.5595 9.13648 36.6595 9.43648 36.8595C9.73648 37.0528 9.96315 37.3262 10.1165 37.6795C10.2698 38.0262 10.3465 38.4295 10.3465 38.8895C10.3465 39.1295 10.3298 39.3162 10.2965 39.4495H7.17648C7.22982 39.8828 7.38648 40.2195 7.64648 40.4595C7.90648 40.6995 8.23315 40.8195 8.62648 40.8195C8.83982 40.8195 9.03648 40.7895 9.21648 40.7295C9.40315 40.6628 9.58648 40.5728 9.76648 40.4595L10.1565 41.1795C9.92315 41.3328 9.66315 41.4595 9.37648 41.5595C9.08982 41.6595 8.78982 41.7095 8.47648 41.7095ZM7.16648 38.6695H9.34648C9.34648 38.2895 9.26315 37.9928 9.09648 37.7795C8.92982 37.5595 8.67982 37.4495 8.34648 37.4495C8.05982 37.4495 7.80315 37.5562 7.57648 37.7695C7.35648 37.9762 7.21982 38.2762 7.16648 38.6695ZM13.4948 41.7095C13.0482 41.7095 12.6448 41.6095 12.2848 41.4095C11.9315 41.2028 11.6482 40.9095 11.4348 40.5295C11.2282 40.1428 11.1248 39.6795 11.1248 39.1395C11.1248 38.5928 11.2382 38.1295 11.4648 37.7495C11.6915 37.3628 11.9915 37.0695 12.3648 36.8695C12.7448 36.6628 13.1515 36.5595 13.5848 36.5595C13.8982 36.5595 14.1715 36.6128 14.4048 36.7195C14.6382 36.8262 14.8448 36.9562 15.0248 37.1095L14.4648 37.8595C14.3382 37.7462 14.2082 37.6595 14.0748 37.5995C13.9415 37.5328 13.7982 37.4995 13.6448 37.4995C13.2515 37.4995 12.9282 37.6495 12.6748 37.9495C12.4282 38.2495 12.3048 38.6462 12.3048 39.1395C12.3048 39.6262 12.4248 40.0195 12.6648 40.3195C12.9115 40.6195 13.2282 40.7695 13.6148 40.7695C13.8082 40.7695 13.9882 40.7295 14.1548 40.6495C14.3282 40.5628 14.4848 40.4628 14.6248 40.3495L15.0948 41.1095C14.8682 41.3095 14.6148 41.4595 14.3348 41.5595C14.0548 41.6595 13.7748 41.7095 13.4948 41.7095ZM17.524 41.7095C16.9973 41.7095 16.614 41.5395 16.374 41.1995C16.134 40.8595 16.014 40.3795 16.014 39.7595V36.6795H17.164V39.6095C17.164 40.0162 17.224 40.3028 17.344 40.4695C17.464 40.6362 17.6573 40.7195 17.924 40.7195C18.1373 40.7195 18.324 40.6662 18.484 40.5595C18.6507 40.4528 18.8273 40.2795 19.014 40.0395V36.6795H20.164V41.5895H19.224L19.134 40.8695H19.104C18.8907 41.1228 18.6573 41.3262 18.404 41.4795C18.1507 41.6328 17.8573 41.7095 17.524 41.7095ZM21.6206 41.5895V36.6795H22.5706L22.6506 37.5495H22.6906C22.864 37.2295 23.074 36.9862 23.3206 36.8195C23.5673 36.6462 23.8206 36.5595 24.0806 36.5595C24.314 36.5595 24.5006 36.5928 24.6406 36.6595L24.4406 37.6595C24.354 37.6328 24.274 37.6128 24.2006 37.5995C24.1273 37.5862 24.0373 37.5795 23.9306 37.5795C23.7373 37.5795 23.534 37.6562 23.3206 37.8095C23.1073 37.9562 22.924 38.2162 22.7706 38.5895V41.5895H21.6206ZM25.3511 41.5895V36.6795H26.5011V41.5895H25.3511ZM25.9311 35.8195C25.7244 35.8195 25.5578 35.7595 25.4311 35.6395C25.3044 35.5195 25.2411 35.3595 25.2411 35.1595C25.2411 34.9662 25.3044 34.8095 25.4311 34.6895C25.5578 34.5695 25.7244 34.5095 25.9311 34.5095C26.1378 34.5095 26.3044 34.5695 26.4311 34.6895C26.5578 34.8095 26.6211 34.9662 26.6211 35.1595C26.6211 35.3595 26.5578 35.5195 26.4311 35.6395C26.3044 35.7595 26.1378 35.8195 25.9311 35.8195ZM29.6983 41.7095C29.1316 41.7095 28.7283 41.5462 28.4883 41.2195C28.2549 40.8862 28.1383 40.4562 28.1383 39.9295V37.5895H27.4383V36.7295L28.1983 36.6795L28.3383 35.3395H29.2983V36.6795H30.5483V37.5895H29.2983V39.9295C29.2983 40.5028 29.5283 40.7895 29.9883 40.7895C30.0749 40.7895 30.1649 40.7795 30.2583 40.7595C30.3516 40.7328 30.4316 40.7062 30.4983 40.6795L30.6983 41.5295C30.5649 41.5762 30.4116 41.6162 30.2383 41.6495C30.0716 41.6895 29.8916 41.7095 29.6983 41.7095ZM31.9116 43.6095C31.7782 43.6095 31.6616 43.5995 31.5616 43.5795C31.4616 43.5595 31.3649 43.5362 31.2716 43.5095L31.4816 42.6095C31.5282 42.6228 31.5816 42.6362 31.6416 42.6495C31.7082 42.6695 31.7716 42.6795 31.8316 42.6795C32.0916 42.6795 32.2982 42.5995 32.4516 42.4395C32.6116 42.2862 32.7316 42.0862 32.8116 41.8395L32.9016 41.5295L30.9716 36.6795H32.1416L32.9916 39.0895C33.0649 39.3028 33.1349 39.5295 33.2016 39.7695C33.2749 40.0028 33.3482 40.2362 33.4216 40.4695H33.4616C33.5216 40.2428 33.5816 40.0128 33.6416 39.7795C33.7082 39.5395 33.7716 39.3095 33.8316 39.0895L34.5716 36.6795H35.6816L33.9016 41.8095C33.6949 42.3628 33.4449 42.7995 33.1516 43.1195C32.8582 43.4462 32.4449 43.6095 31.9116 43.6095Z" fill="#14AE5C"/>
</svg>
