<svg width="35" height="45" viewBox="0 0 35 45" fill="none" xmlns="http://www.w3.org/2000/svg">
<path d="M23.5 5.08949L15.25 13.3395L11.5 9.58949" stroke="#14AE5C" stroke-width="4" stroke-linecap="round" stroke-linejoin="round"/>
<path d="M7.30984 28.7095C6.84984 28.7095 6.42318 28.6228 6.02984 28.4495C5.63651 28.2695 5.29651 28.0328 5.00984 27.7395L5.50984 27.1595C5.74318 27.4062 6.01651 27.6062 6.32984 27.7595C6.64984 27.9062 6.97984 27.9795 7.31984 27.9795C7.75318 27.9795 8.08984 27.8828 8.32984 27.6895C8.56984 27.4895 8.68984 27.2295 8.68984 26.9095C8.68984 26.6828 8.63984 26.5028 8.53984 26.3695C8.44651 26.2362 8.31651 26.1228 8.14984 26.0295C7.98984 25.9362 7.80651 25.8428 7.59984 25.7495L6.65984 25.3395C6.45318 25.2528 6.24651 25.1395 6.03984 24.9995C5.83984 24.8595 5.66984 24.6795 5.52984 24.4595C5.39651 24.2395 5.32984 23.9695 5.32984 23.6495C5.32984 23.3162 5.41651 23.0195 5.58984 22.7595C5.76984 22.4928 6.01651 22.2862 6.32984 22.1395C6.64318 21.9862 6.99651 21.9095 7.38984 21.9095C7.78318 21.9095 8.14651 21.9862 8.47984 22.1395C8.81318 22.2862 9.09651 22.4795 9.32984 22.7195L8.87984 23.2595C8.67984 23.0662 8.45651 22.9162 8.20984 22.8095C7.96984 22.6962 7.69651 22.6395 7.38984 22.6395C7.02318 22.6395 6.72651 22.7262 6.49984 22.8995C6.27984 23.0728 6.16984 23.3062 6.16984 23.5995C6.16984 23.8062 6.22318 23.9795 6.32984 24.1195C6.44318 24.2528 6.58318 24.3628 6.74984 24.4495C6.91651 24.5362 7.08651 24.6162 7.25984 24.6895L8.18984 25.0895C8.44318 25.1962 8.66984 25.3262 8.86984 25.4795C9.07651 25.6262 9.23984 25.8095 9.35984 26.0295C9.47984 26.2428 9.53984 26.5128 9.53984 26.8395C9.53984 27.1862 9.44984 27.5028 9.26984 27.7895C9.08984 28.0695 8.83318 28.2928 8.49984 28.4595C8.16651 28.6262 7.76984 28.7095 7.30984 28.7095ZM12.0375 28.7095C11.5175 28.7095 11.1542 28.5595 10.9475 28.2595C10.7475 27.9595 10.6475 27.5695 10.6475 27.0895V24.3995H9.9275V23.7795L10.6875 23.7295L10.7875 22.3695H11.4775V23.7295H12.7875V24.3995H11.4775V27.0995C11.4775 27.3995 11.5308 27.6328 11.6375 27.7995C11.7508 27.9595 11.9475 28.0395 12.2275 28.0395C12.3142 28.0395 12.4075 28.0262 12.5075 27.9995C12.6075 27.9662 12.6975 27.9362 12.7775 27.9095L12.9375 28.5295C12.8042 28.5762 12.6575 28.6162 12.4975 28.6495C12.3442 28.6895 12.1908 28.7095 12.0375 28.7095ZM15.7197 28.7095C15.2864 28.7095 14.893 28.6095 14.5397 28.4095C14.1864 28.2028 13.9064 27.9095 13.6997 27.5295C13.493 27.1495 13.3897 26.6962 13.3897 26.1695C13.3897 25.6362 13.493 25.1795 13.6997 24.7995C13.913 24.4195 14.1864 24.1262 14.5197 23.9195C14.853 23.7128 15.203 23.6095 15.5697 23.6095C16.1897 23.6095 16.6664 23.8162 16.9997 24.2295C17.3397 24.6428 17.5097 25.1962 17.5097 25.8895C17.5097 25.9762 17.5064 26.0628 17.4997 26.1495C17.4997 26.2295 17.493 26.2995 17.4797 26.3595H14.1997C14.233 26.8728 14.393 27.2828 14.6797 27.5895C14.973 27.8962 15.353 28.0495 15.8197 28.0495C16.053 28.0495 16.2664 28.0162 16.4597 27.9495C16.6597 27.8762 16.8497 27.7828 17.0297 27.6695L17.3197 28.2095C17.113 28.3428 16.8764 28.4595 16.6097 28.5595C16.3497 28.6595 16.053 28.7095 15.7197 28.7095ZM14.1897 25.7695H16.7897C16.7897 25.2762 16.683 24.9028 16.4697 24.6495C16.263 24.3895 15.9697 24.2595 15.5897 24.2595C15.2497 24.2595 14.943 24.3928 14.6697 24.6595C14.403 24.9195 14.243 25.2895 14.1897 25.7695ZM18.7106 30.6395V23.7295H19.3906L19.4606 24.2895H19.4906C19.7106 24.1028 19.9506 23.9428 20.2106 23.8095C20.4773 23.6762 20.754 23.6095 21.0406 23.6095C21.6673 23.6095 22.144 23.8362 22.4706 24.2895C22.7973 24.7362 22.9606 25.3362 22.9606 26.0895C22.9606 26.6362 22.8606 27.1062 22.6606 27.4995C22.4673 27.8928 22.2106 28.1928 21.8906 28.3995C21.5773 28.6062 21.234 28.7095 20.8606 28.7095C20.634 28.7095 20.4073 28.6595 20.1806 28.5595C19.9606 28.4595 19.7373 28.3228 19.5106 28.1495L19.5306 28.9995V30.6395H18.7106ZM20.7206 28.0195C21.1206 28.0195 21.4506 27.8495 21.7106 27.5095C21.9773 27.1628 22.1106 26.6895 22.1106 26.0895C22.1106 25.5562 22.0106 25.1262 21.8106 24.7995C21.6173 24.4662 21.2906 24.2995 20.8306 24.2995C20.624 24.2995 20.414 24.3562 20.2006 24.4695C19.994 24.5828 19.7706 24.7462 19.5306 24.9595V27.5095C19.7506 27.6962 19.964 27.8295 20.1706 27.9095C20.3773 27.9828 20.5606 28.0195 20.7206 28.0195ZM25.8395 28.5895V28.0995C26.4795 27.4595 27.0228 26.8995 27.4695 26.4195C27.9161 25.9328 28.2561 25.4962 28.4895 25.1095C28.7228 24.7162 28.8395 24.3495 28.8395 24.0095C28.8395 23.6428 28.7395 23.3428 28.5395 23.1095C28.3395 22.8762 28.0361 22.7595 27.6295 22.7595C27.3628 22.7595 27.1161 22.8362 26.8895 22.9895C26.6628 23.1362 26.4561 23.3162 26.2695 23.5295L25.7995 23.0595C26.0661 22.7662 26.3495 22.5328 26.6495 22.3595C26.9561 22.1795 27.3161 22.0895 27.7295 22.0895C28.3228 22.0895 28.7895 22.2628 29.1295 22.6095C29.4695 22.9495 29.6395 23.4028 29.6395 23.9695C29.6395 24.3695 29.5261 24.7762 29.2995 25.1895C29.0795 25.5962 28.7728 26.0262 28.3795 26.4795C27.9928 26.9262 27.5461 27.4128 27.0395 27.9395C27.2128 27.9262 27.3928 27.9128 27.5795 27.8995C27.7661 27.8862 27.9428 27.8795 28.1095 27.8795H29.9595V28.5895H25.8395ZM2.58016 38.1095L2.35016 38.9095H4.02016L3.79016 38.1095C3.68349 37.7628 3.58016 37.4062 3.48016 37.0395C3.38682 36.6728 3.29349 36.3095 3.20016 35.9495H3.16016C3.07349 36.3162 2.98016 36.6828 2.88016 37.0495C2.78682 37.4095 2.68682 37.7628 2.58016 38.1095ZM0.390156 41.5895L2.52016 35.0495H3.88016L6.01016 41.5895H4.79016L4.28016 39.8195H2.08016L1.57016 41.5895H0.390156ZM8.43633 41.7095C7.82299 41.7095 7.33299 41.4828 6.96633 41.0295C6.59966 40.5762 6.41633 39.9462 6.41633 39.1395C6.41633 38.6062 6.51299 38.1462 6.70633 37.7595C6.90633 37.3728 7.16633 37.0762 7.48633 36.8695C7.80633 36.6628 8.14299 36.5595 8.49633 36.5595C8.77633 36.5595 9.01299 36.6095 9.20633 36.7095C9.40633 36.8028 9.59966 36.9328 9.78633 37.0995L9.74633 36.3095V34.5295H10.8963V41.5895H9.94633L9.86633 41.0595H9.82633C9.64633 41.2395 9.43633 41.3928 9.19633 41.5195C8.95633 41.6462 8.70299 41.7095 8.43633 41.7095ZM8.71633 40.7595C9.08299 40.7595 9.42633 40.5762 9.74633 40.2095V37.9195C9.57966 37.7662 9.41299 37.6595 9.24633 37.5995C9.07966 37.5395 8.913 37.5095 8.74633 37.5095C8.43299 37.5095 8.16299 37.6528 7.93633 37.9395C7.71633 38.2195 7.60633 38.6162 7.60633 39.1295C7.60633 39.6562 7.70299 40.0595 7.89633 40.3395C8.08966 40.6195 8.36299 40.7595 8.71633 40.7595ZM14.0809 41.7095C13.4675 41.7095 12.9775 41.4828 12.6109 41.0295C12.2442 40.5762 12.0609 39.9462 12.0609 39.1395C12.0609 38.6062 12.1575 38.1462 12.3509 37.7595C12.5509 37.3728 12.8109 37.0762 13.1309 36.8695C13.4509 36.6628 13.7875 36.5595 14.1409 36.5595C14.4209 36.5595 14.6575 36.6095 14.8509 36.7095C15.0509 36.8028 15.2442 36.9328 15.4309 37.0995L15.3909 36.3095V34.5295H16.5409V41.5895H15.5909L15.5109 41.0595H15.4709C15.2909 41.2395 15.0809 41.3928 14.8409 41.5195C14.6009 41.6462 14.3475 41.7095 14.0809 41.7095ZM14.3609 40.7595C14.7275 40.7595 15.0709 40.5762 15.3909 40.2095V37.9195C15.2242 37.7662 15.0575 37.6595 14.8909 37.5995C14.7242 37.5395 14.5575 37.5095 14.3909 37.5095C14.0775 37.5095 13.8075 37.6528 13.5809 37.9395C13.3609 38.2195 13.2509 38.6162 13.2509 39.1295C13.2509 39.6562 13.3475 40.0595 13.5409 40.3395C13.7342 40.6195 14.0075 40.7595 14.3609 40.7595ZM18.0054 41.5895V36.6795H18.9554L19.0354 37.5495H19.0754C19.2487 37.2295 19.4587 36.9862 19.7054 36.8195C19.9521 36.6462 20.2054 36.5595 20.4654 36.5595C20.6987 36.5595 20.8854 36.5928 21.0254 36.6595L20.8254 37.6595C20.7387 37.6328 20.6587 37.6128 20.5854 37.5995C20.5121 37.5862 20.4221 37.5795 20.3154 37.5795C20.1221 37.5795 19.9187 37.6562 19.7054 37.8095C19.4921 37.9562 19.3087 38.2162 19.1554 38.5895V41.5895H18.0054ZM23.7382 41.7095C23.2849 41.7095 22.8749 41.6095 22.5082 41.4095C22.1415 41.2028 21.8515 40.9095 21.6382 40.5295C21.4249 40.1428 21.3182 39.6795 21.3182 39.1395C21.3182 38.6062 21.4249 38.1462 21.6382 37.7595C21.8582 37.3728 22.1415 37.0762 22.4882 36.8695C22.8349 36.6628 23.1982 36.5595 23.5782 36.5595C24.0249 36.5595 24.3982 36.6595 24.6982 36.8595C24.9982 37.0528 25.2249 37.3262 25.3782 37.6795C25.5315 38.0262 25.6082 38.4295 25.6082 38.8895C25.6082 39.1295 25.5915 39.3162 25.5582 39.4495H22.4382C22.4915 39.8828 22.6482 40.2195 22.9082 40.4595C23.1682 40.6995 23.4949 40.8195 23.8882 40.8195C24.1015 40.8195 24.2982 40.7895 24.4782 40.7295C24.6649 40.6628 24.8482 40.5728 25.0282 40.4595L25.4182 41.1795C25.1849 41.3328 24.9249 41.4595 24.6382 41.5595C24.3515 41.6595 24.0515 41.7095 23.7382 41.7095ZM22.4282 38.6695H24.6082C24.6082 38.2895 24.5249 37.9928 24.3582 37.7795C24.1915 37.5595 23.9415 37.4495 23.6082 37.4495C23.3215 37.4495 23.0649 37.5562 22.8382 37.7695C22.6182 37.9762 22.4815 38.2762 22.4282 38.6695ZM28.0766 41.7095C27.7432 41.7095 27.4099 41.6462 27.0766 41.5195C26.7432 41.3862 26.4566 41.2228 26.2166 41.0295L26.7566 40.2895C26.9766 40.4562 27.1966 40.5895 27.4166 40.6895C27.6366 40.7895 27.8699 40.8395 28.1166 40.8395C28.3832 40.8395 28.5799 40.7828 28.7066 40.6695C28.8332 40.5562 28.8966 40.4162 28.8966 40.2495C28.8966 40.1095 28.8432 39.9962 28.7366 39.9095C28.6366 39.8162 28.5066 39.7362 28.3466 39.6695C28.1866 39.5962 28.0199 39.5262 27.8466 39.4595C27.6332 39.3795 27.4199 39.2828 27.2066 39.1695C26.9999 39.0495 26.8299 38.8995 26.6966 38.7195C26.5632 38.5328 26.4966 38.3028 26.4966 38.0295C26.4966 37.5962 26.6566 37.2428 26.9766 36.9695C27.2966 36.6962 27.7299 36.5595 28.2766 36.5595C28.6232 36.5595 28.9332 36.6195 29.2066 36.7395C29.4799 36.8595 29.7166 36.9962 29.9166 37.1495L29.3866 37.8495C29.2132 37.7228 29.0366 37.6228 28.8566 37.5495C28.6832 37.4695 28.4999 37.4295 28.3066 37.4295C28.0599 37.4295 27.8766 37.4828 27.7566 37.5895C27.6366 37.6895 27.5766 37.8162 27.5766 37.9695C27.5766 38.1628 27.6766 38.3095 27.8766 38.4095C28.0766 38.5095 28.3099 38.6062 28.5766 38.6995C28.8032 38.7795 29.0232 38.8795 29.2366 38.9995C29.4499 39.1128 29.6266 39.2628 29.7666 39.4495C29.9132 39.6362 29.9866 39.8828 29.9866 40.1895C29.9866 40.6095 29.8232 40.9695 29.4966 41.2695C29.1699 41.5628 28.6966 41.7095 28.0766 41.7095ZM32.3832 41.7095C32.0499 41.7095 31.7165 41.6462 31.3832 41.5195C31.0499 41.3862 30.7632 41.2228 30.5232 41.0295L31.0632 40.2895C31.2832 40.4562 31.5032 40.5895 31.7232 40.6895C31.9432 40.7895 32.1765 40.8395 32.4232 40.8395C32.6899 40.8395 32.8865 40.7828 33.0132 40.6695C33.1399 40.5562 33.2032 40.4162 33.2032 40.2495C33.2032 40.1095 33.1499 39.9962 33.0432 39.9095C32.9432 39.8162 32.8132 39.7362 32.6532 39.6695C32.4932 39.5962 32.3265 39.5262 32.1532 39.4595C31.9399 39.3795 31.7265 39.2828 31.5132 39.1695C31.3065 39.0495 31.1365 38.8995 31.0032 38.7195C30.8699 38.5328 30.8032 38.3028 30.8032 38.0295C30.8032 37.5962 30.9632 37.2428 31.2832 36.9695C31.6032 36.6962 32.0365 36.5595 32.5832 36.5595C32.9299 36.5595 33.2399 36.6195 33.5132 36.7395C33.7865 36.8595 34.0232 36.9962 34.2232 37.1495L33.6932 37.8495C33.5199 37.7228 33.3432 37.6228 33.1632 37.5495C32.9899 37.4695 32.8065 37.4295 32.6132 37.4295C32.3665 37.4295 32.1832 37.4828 32.0632 37.5895C31.9432 37.6895 31.8832 37.8162 31.8832 37.9695C31.8832 38.1628 31.9832 38.3095 32.1832 38.4095C32.3832 38.5095 32.6165 38.6062 32.8832 38.6995C33.1099 38.7795 33.3299 38.8795 33.5432 38.9995C33.7565 39.1128 33.9332 39.2628 34.0732 39.4495C34.2199 39.6362 34.2932 39.8828 34.2932 40.1895C34.2932 40.6095 34.1299 40.9695 33.8032 41.2695C33.4765 41.5628 33.0032 41.7095 32.3832 41.7095Z" fill="#14AE5C"/>
</svg>
