<svg width="36" height="45" viewBox="0 0 36 45" fill="none" xmlns="http://www.w3.org/2000/svg">
<path d="M10.5 16.3395C10.0858 16.3395 9.75 16.6753 9.75 17.0895C9.75 17.5037 10.0858 17.8395 10.5 17.8395V16.3395ZM25.5 17.8395C25.9142 17.8395 26.25 17.5037 26.25 17.0895C26.25 16.6753 25.9142 16.3395 25.5 16.3395V17.8395ZM11.25 8.06698L12 8.0701V8.06698H11.25ZM11.8275 6.88952L11.3667 6.29772L11.362 6.30149L11.8275 6.88952ZM17.0775 2.80201L16.617 2.21L16.6167 2.21023L17.0775 2.80201ZM18.9225 2.80201L19.3827 2.20981L19.379 2.20694L18.9225 2.80201ZM24.1725 6.88202L23.7123 7.47421L23.7129 7.47468L24.1725 6.88202ZM14.25 17.0895H13.5C13.5 17.5037 13.8358 17.8395 14.25 17.8395V17.0895ZM21.75 17.0895V17.8395C22.1642 17.8395 22.5 17.5037 22.5 17.0895H21.75ZM17.25 12.777C17.25 12.3628 16.9142 12.027 16.5 12.027C16.0858 12.027 15.75 12.3628 15.75 12.777H17.25ZM15.75 13.902C15.75 14.3162 16.0858 14.652 16.5 14.652C16.9142 14.652 17.25 14.3162 17.25 13.902H15.75ZM16.875 5.46449C16.4608 5.46449 16.125 5.80028 16.125 6.21449C16.125 6.62871 16.4608 6.96449 16.875 6.96449V5.46449ZM19.125 6.96449C19.5392 6.96449 19.875 6.62871 19.875 6.21449C19.875 5.80028 19.5392 5.46449 19.125 5.46449V6.96449ZM10.5 17.8395H25.5V16.3395H10.5V17.8395ZM11.9625 17.0926L12 8.0701L10.5 8.06387L10.4625 17.0864L11.9625 17.0926ZM12 8.06698C12 7.84692 12.1061 7.62551 12.293 7.47756L11.362 6.30149C10.8289 6.72354 10.5 7.37205 10.5 8.06698H12ZM12.2882 7.48131L17.5382 3.3938L16.6167 2.21023L11.3667 6.29774L12.2882 7.48131ZM17.538 3.39403C17.8053 3.18612 18.1859 3.18222 18.466 3.39709L19.379 2.20694C18.5641 1.58181 17.4297 1.57791 16.617 2.21L17.538 3.39403ZM18.4623 3.39421L23.7123 7.47421L24.6327 6.28982L19.3827 2.20982L18.4623 3.39421ZM23.7129 7.47468C23.8945 7.61551 24 7.83034 24 8.06698H25.5C25.5 7.37363 25.1855 6.71852 24.6321 6.28935L23.7129 7.47468ZM24 8.06698V17.0895H25.5V8.06698H24ZM20.625 8.08949H15.375V9.58949H20.625V8.08949ZM15.375 8.08949C14.3383 8.08949 13.5 8.92778 13.5 9.96449H15C15 9.75621 15.1667 9.58949 15.375 9.58949V8.08949ZM13.5 9.96449V17.0895H15V9.96449H13.5ZM14.25 17.8395H21.75V16.3395H14.25V17.8395ZM22.5 17.0895V9.96449H21V17.0895H22.5ZM22.5 9.96449C22.5 8.92778 21.6617 8.08949 20.625 8.08949V9.58949C20.8333 9.58949 21 9.75621 21 9.96449H22.5ZM15.75 12.777V13.902H17.25V12.777H15.75ZM16.875 6.96449H19.125V5.46449H16.875V6.96449Z" fill="#3A3A3A"/>
<path d="M7.80984 28.7095C7.34984 28.7095 6.92318 28.6228 6.52984 28.4495C6.13651 28.2695 5.79651 28.0328 5.50984 27.7395L6.00984 27.1595C6.24318 27.4062 6.51651 27.6062 6.82984 27.7595C7.14984 27.9062 7.47984 27.9795 7.81984 27.9795C8.25318 27.9795 8.58984 27.8828 8.82984 27.6895C9.06984 27.4895 9.18984 27.2295 9.18984 26.9095C9.18984 26.6828 9.13984 26.5028 9.03984 26.3695C8.94651 26.2362 8.81651 26.1228 8.64984 26.0295C8.48984 25.9362 8.30651 25.8428 8.09984 25.7495L7.15984 25.3395C6.95318 25.2528 6.74651 25.1395 6.53984 24.9995C6.33984 24.8595 6.16984 24.6795 6.02984 24.4595C5.89651 24.2395 5.82984 23.9695 5.82984 23.6495C5.82984 23.3162 5.91651 23.0195 6.08984 22.7595C6.26984 22.4928 6.51651 22.2862 6.82984 22.1395C7.14318 21.9862 7.49651 21.9095 7.88984 21.9095C8.28318 21.9095 8.64651 21.9862 8.97984 22.1395C9.31318 22.2862 9.59651 22.4795 9.82984 22.7195L9.37984 23.2595C9.17984 23.0662 8.95651 22.9162 8.70984 22.8095C8.46984 22.6962 8.19651 22.6395 7.88984 22.6395C7.52318 22.6395 7.22651 22.7262 6.99984 22.8995C6.77984 23.0728 6.66984 23.3062 6.66984 23.5995C6.66984 23.8062 6.72318 23.9795 6.82984 24.1195C6.94318 24.2528 7.08318 24.3628 7.24984 24.4495C7.41651 24.5362 7.58651 24.6162 7.75984 24.6895L8.68984 25.0895C8.94318 25.1962 9.16984 25.3262 9.36984 25.4795C9.57651 25.6262 9.73984 25.8095 9.85984 26.0295C9.97984 26.2428 10.0398 26.5128 10.0398 26.8395C10.0398 27.1862 9.94984 27.5028 9.76984 27.7895C9.58984 28.0695 9.33318 28.2928 8.99984 28.4595C8.66651 28.6262 8.26984 28.7095 7.80984 28.7095ZM12.5375 28.7095C12.0175 28.7095 11.6542 28.5595 11.4475 28.2595C11.2475 27.9595 11.1475 27.5695 11.1475 27.0895V24.3995H10.4275V23.7795L11.1875 23.7295L11.2875 22.3695H11.9775V23.7295H13.2875V24.3995H11.9775V27.0995C11.9775 27.3995 12.0308 27.6328 12.1375 27.7995C12.2508 27.9595 12.4475 28.0395 12.7275 28.0395C12.8142 28.0395 12.9075 28.0262 13.0075 27.9995C13.1075 27.9662 13.1975 27.9362 13.2775 27.9095L13.4375 28.5295C13.3042 28.5762 13.1575 28.6162 12.9975 28.6495C12.8442 28.6895 12.6908 28.7095 12.5375 28.7095ZM16.2197 28.7095C15.7864 28.7095 15.393 28.6095 15.0397 28.4095C14.6864 28.2028 14.4064 27.9095 14.1997 27.5295C13.993 27.1495 13.8897 26.6962 13.8897 26.1695C13.8897 25.6362 13.993 25.1795 14.1997 24.7995C14.413 24.4195 14.6864 24.1262 15.0197 23.9195C15.353 23.7128 15.703 23.6095 16.0697 23.6095C16.6897 23.6095 17.1664 23.8162 17.4997 24.2295C17.8397 24.6428 18.0097 25.1962 18.0097 25.8895C18.0097 25.9762 18.0064 26.0628 17.9997 26.1495C17.9997 26.2295 17.993 26.2995 17.9797 26.3595H14.6997C14.733 26.8728 14.893 27.2828 15.1797 27.5895C15.473 27.8962 15.853 28.0495 16.3197 28.0495C16.553 28.0495 16.7664 28.0162 16.9597 27.9495C17.1597 27.8762 17.3497 27.7828 17.5297 27.6695L17.8197 28.2095C17.613 28.3428 17.3764 28.4595 17.1097 28.5595C16.8497 28.6595 16.553 28.7095 16.2197 28.7095ZM14.6897 25.7695H17.2897C17.2897 25.2762 17.183 24.9028 16.9697 24.6495C16.763 24.3895 16.4697 24.2595 16.0897 24.2595C15.7497 24.2595 15.443 24.3928 15.1697 24.6595C14.903 24.9195 14.743 25.2895 14.6897 25.7695ZM19.2106 30.6395V23.7295H19.8906L19.9606 24.2895H19.9906C20.2106 24.1028 20.4506 23.9428 20.7106 23.8095C20.9773 23.6762 21.254 23.6095 21.5406 23.6095C22.1673 23.6095 22.644 23.8362 22.9706 24.2895C23.2973 24.7362 23.4606 25.3362 23.4606 26.0895C23.4606 26.6362 23.3606 27.1062 23.1606 27.4995C22.9673 27.8928 22.7106 28.1928 22.3906 28.3995C22.0773 28.6062 21.734 28.7095 21.3606 28.7095C21.134 28.7095 20.9073 28.6595 20.6806 28.5595C20.4606 28.4595 20.2373 28.3228 20.0106 28.1495L20.0306 28.9995V30.6395H19.2106ZM21.2206 28.0195C21.6206 28.0195 21.9506 27.8495 22.2106 27.5095C22.4773 27.1628 22.6106 26.6895 22.6106 26.0895C22.6106 25.5562 22.5106 25.1262 22.3106 24.7995C22.1173 24.4662 21.7906 24.2995 21.3306 24.2995C21.124 24.2995 20.914 24.3562 20.7006 24.4695C20.494 24.5828 20.2706 24.7462 20.0306 24.9595V27.5095C20.2506 27.6962 20.464 27.8295 20.6706 27.9095C20.8773 27.9828 21.0606 28.0195 21.2206 28.0195ZM26.3395 28.5895V28.0995C26.9795 27.4595 27.5228 26.8995 27.9695 26.4195C28.4161 25.9328 28.7561 25.4962 28.9895 25.1095C29.2228 24.7162 29.3395 24.3495 29.3395 24.0095C29.3395 23.6428 29.2395 23.3428 29.0395 23.1095C28.8395 22.8762 28.5361 22.7595 28.1295 22.7595C27.8628 22.7595 27.6161 22.8362 27.3895 22.9895C27.1628 23.1362 26.9561 23.3162 26.7695 23.5295L26.2995 23.0595C26.5661 22.7662 26.8495 22.5328 27.1495 22.3595C27.4561 22.1795 27.8161 22.0895 28.2295 22.0895C28.8228 22.0895 29.2895 22.2628 29.6295 22.6095C29.9695 22.9495 30.1395 23.4028 30.1395 23.9695C30.1395 24.3695 30.0261 24.7762 29.7995 25.1895C29.5795 25.5962 29.2728 26.0262 28.8795 26.4795C28.4928 26.9262 28.0461 27.4128 27.5395 27.9395C27.7128 27.9262 27.8928 27.9128 28.0795 27.8995C28.2661 27.8862 28.4428 27.8795 28.6095 27.8795H30.4595V28.5895H26.3395ZM3.08016 38.1095L2.85016 38.9095H4.52016L4.29016 38.1095C4.18349 37.7628 4.08016 37.4062 3.98016 37.0395C3.88682 36.6728 3.79349 36.3095 3.70016 35.9495H3.66016C3.57349 36.3162 3.48016 36.6828 3.38016 37.0495C3.28682 37.4095 3.18682 37.7628 3.08016 38.1095ZM0.890156 41.5895L3.02016 35.0495H4.38016L6.51016 41.5895H5.29016L4.78016 39.8195H2.58016L2.07016 41.5895H0.890156ZM8.93633 41.7095C8.32299 41.7095 7.83299 41.4828 7.46633 41.0295C7.09966 40.5762 6.91633 39.9462 6.91633 39.1395C6.91633 38.6062 7.01299 38.1462 7.20633 37.7595C7.40633 37.3728 7.66633 37.0762 7.98633 36.8695C8.30633 36.6628 8.64299 36.5595 8.99633 36.5595C9.27633 36.5595 9.51299 36.6095 9.70633 36.7095C9.90633 36.8028 10.0997 36.9328 10.2863 37.0995L10.2463 36.3095V34.5295H11.3963V41.5895H10.4463L10.3663 41.0595H10.3263C10.1463 41.2395 9.93633 41.3928 9.69633 41.5195C9.45633 41.6462 9.20299 41.7095 8.93633 41.7095ZM9.21633 40.7595C9.58299 40.7595 9.92633 40.5762 10.2463 40.2095V37.9195C10.0797 37.7662 9.91299 37.6595 9.74633 37.5995C9.57966 37.5395 9.413 37.5095 9.24633 37.5095C8.93299 37.5095 8.66299 37.6528 8.43633 37.9395C8.21633 38.2195 8.10633 38.6162 8.10633 39.1295C8.10633 39.6562 8.20299 40.0595 8.39633 40.3395C8.58966 40.6195 8.86299 40.7595 9.21633 40.7595ZM14.5809 41.7095C13.9675 41.7095 13.4775 41.4828 13.1109 41.0295C12.7442 40.5762 12.5609 39.9462 12.5609 39.1395C12.5609 38.6062 12.6575 38.1462 12.8509 37.7595C13.0509 37.3728 13.3109 37.0762 13.6309 36.8695C13.9509 36.6628 14.2875 36.5595 14.6409 36.5595C14.9209 36.5595 15.1575 36.6095 15.3509 36.7095C15.5509 36.8028 15.7442 36.9328 15.9309 37.0995L15.8909 36.3095V34.5295H17.0409V41.5895H16.0909L16.0109 41.0595H15.9709C15.7909 41.2395 15.5809 41.3928 15.3409 41.5195C15.1009 41.6462 14.8475 41.7095 14.5809 41.7095ZM14.8609 40.7595C15.2275 40.7595 15.5709 40.5762 15.8909 40.2095V37.9195C15.7242 37.7662 15.5575 37.6595 15.3909 37.5995C15.2242 37.5395 15.0575 37.5095 14.8909 37.5095C14.5775 37.5095 14.3075 37.6528 14.0809 37.9395C13.8609 38.2195 13.7509 38.6162 13.7509 39.1295C13.7509 39.6562 13.8475 40.0595 14.0409 40.3395C14.2342 40.6195 14.5075 40.7595 14.8609 40.7595ZM18.5054 41.5895V36.6795H19.4554L19.5354 37.5495H19.5754C19.7487 37.2295 19.9587 36.9862 20.2054 36.8195C20.4521 36.6462 20.7054 36.5595 20.9654 36.5595C21.1987 36.5595 21.3854 36.5928 21.5254 36.6595L21.3254 37.6595C21.2387 37.6328 21.1587 37.6128 21.0854 37.5995C21.0121 37.5862 20.9221 37.5795 20.8154 37.5795C20.6221 37.5795 20.4187 37.6562 20.2054 37.8095C19.9921 37.9562 19.8087 38.2162 19.6554 38.5895V41.5895H18.5054ZM24.2382 41.7095C23.7849 41.7095 23.3749 41.6095 23.0082 41.4095C22.6415 41.2028 22.3515 40.9095 22.1382 40.5295C21.9249 40.1428 21.8182 39.6795 21.8182 39.1395C21.8182 38.6062 21.9249 38.1462 22.1382 37.7595C22.3582 37.3728 22.6415 37.0762 22.9882 36.8695C23.3349 36.6628 23.6982 36.5595 24.0782 36.5595C24.5249 36.5595 24.8982 36.6595 25.1982 36.8595C25.4982 37.0528 25.7249 37.3262 25.8782 37.6795C26.0315 38.0262 26.1082 38.4295 26.1082 38.8895C26.1082 39.1295 26.0915 39.3162 26.0582 39.4495H22.9382C22.9915 39.8828 23.1482 40.2195 23.4082 40.4595C23.6682 40.6995 23.9949 40.8195 24.3882 40.8195C24.6015 40.8195 24.7982 40.7895 24.9782 40.7295C25.1649 40.6628 25.3482 40.5728 25.5282 40.4595L25.9182 41.1795C25.6849 41.3328 25.4249 41.4595 25.1382 41.5595C24.8515 41.6595 24.5515 41.7095 24.2382 41.7095ZM22.9282 38.6695H25.1082C25.1082 38.2895 25.0249 37.9928 24.8582 37.7795C24.6915 37.5595 24.4415 37.4495 24.1082 37.4495C23.8215 37.4495 23.5649 37.5562 23.3382 37.7695C23.1182 37.9762 22.9815 38.2762 22.9282 38.6695ZM28.5766 41.7095C28.2432 41.7095 27.9099 41.6462 27.5766 41.5195C27.2432 41.3862 26.9566 41.2228 26.7166 41.0295L27.2566 40.2895C27.4766 40.4562 27.6966 40.5895 27.9166 40.6895C28.1366 40.7895 28.3699 40.8395 28.6166 40.8395C28.8832 40.8395 29.0799 40.7828 29.2066 40.6695C29.3332 40.5562 29.3966 40.4162 29.3966 40.2495C29.3966 40.1095 29.3432 39.9962 29.2366 39.9095C29.1366 39.8162 29.0066 39.7362 28.8466 39.6695C28.6866 39.5962 28.5199 39.5262 28.3466 39.4595C28.1332 39.3795 27.9199 39.2828 27.7066 39.1695C27.4999 39.0495 27.3299 38.8995 27.1966 38.7195C27.0632 38.5328 26.9966 38.3028 26.9966 38.0295C26.9966 37.5962 27.1566 37.2428 27.4766 36.9695C27.7966 36.6962 28.2299 36.5595 28.7766 36.5595C29.1232 36.5595 29.4332 36.6195 29.7066 36.7395C29.9799 36.8595 30.2166 36.9962 30.4166 37.1495L29.8866 37.8495C29.7132 37.7228 29.5366 37.6228 29.3566 37.5495C29.1832 37.4695 28.9999 37.4295 28.8066 37.4295C28.5599 37.4295 28.3766 37.4828 28.2566 37.5895C28.1366 37.6895 28.0766 37.8162 28.0766 37.9695C28.0766 38.1628 28.1766 38.3095 28.3766 38.4095C28.5766 38.5095 28.8099 38.6062 29.0766 38.6995C29.3032 38.7795 29.5232 38.8795 29.7366 38.9995C29.9499 39.1128 30.1266 39.2628 30.2666 39.4495C30.4132 39.6362 30.4866 39.8828 30.4866 40.1895C30.4866 40.6095 30.3232 40.9695 29.9966 41.2695C29.6699 41.5628 29.1966 41.7095 28.5766 41.7095ZM32.8832 41.7095C32.5499 41.7095 32.2165 41.6462 31.8832 41.5195C31.5499 41.3862 31.2632 41.2228 31.0232 41.0295L31.5632 40.2895C31.7832 40.4562 32.0032 40.5895 32.2232 40.6895C32.4432 40.7895 32.6765 40.8395 32.9232 40.8395C33.1899 40.8395 33.3865 40.7828 33.5132 40.6695C33.6399 40.5562 33.7032 40.4162 33.7032 40.2495C33.7032 40.1095 33.6499 39.9962 33.5432 39.9095C33.4432 39.8162 33.3132 39.7362 33.1532 39.6695C32.9932 39.5962 32.8265 39.5262 32.6532 39.4595C32.4399 39.3795 32.2265 39.2828 32.0132 39.1695C31.8065 39.0495 31.6365 38.8995 31.5032 38.7195C31.3699 38.5328 31.3032 38.3028 31.3032 38.0295C31.3032 37.5962 31.4632 37.2428 31.7832 36.9695C32.1032 36.6962 32.5365 36.5595 33.0832 36.5595C33.4299 36.5595 33.7399 36.6195 34.0132 36.7395C34.2865 36.8595 34.5232 36.9962 34.7232 37.1495L34.1932 37.8495C34.0199 37.7228 33.8432 37.6228 33.6632 37.5495C33.4899 37.4695 33.3065 37.4295 33.1132 37.4295C32.8665 37.4295 32.6832 37.4828 32.5632 37.5895C32.4432 37.6895 32.3832 37.8162 32.3832 37.9695C32.3832 38.1628 32.4832 38.3095 32.6832 38.4095C32.8832 38.5095 33.1165 38.6062 33.3832 38.6995C33.6099 38.7795 33.8299 38.8795 34.0432 38.9995C34.2565 39.1128 34.4332 39.2628 34.5732 39.4495C34.7199 39.6362 34.7932 39.8828 34.7932 40.1895C34.7932 40.6095 34.6299 40.9695 34.3032 41.2695C33.9765 41.5628 33.5032 41.7095 32.8832 41.7095Z" fill="#3A3A3A"/>
</svg>
